%TF.GenerationSoftware,KiCad,Pcbnew,10.0.2*%
%TF.CreationDate,2026-05-09T21:21:34-03:00*%
%TF.ProjectId,kicad-pps,6b696361-642d-4707-9073-2e6b69636164,rev?*%
%TF.SameCoordinates,Original*%
%TF.FileFunction,Legend,Top*%
%TF.FilePolarity,Positive*%
%FSLAX46Y46*%
G04 Gerber Fmt 4.6, Leading zero omitted, Abs format (unit mm)*
G04 Created by KiCad (PCBNEW 10.0.2) date 2026-05-09 21:21:34*
%MOMM*%
%LPD*%
G01*
G04 APERTURE LIST*
%ADD10C,0.150000*%
%ADD11C,0.100000*%
%ADD12C,0.120000*%
G04 APERTURE END LIST*
D10*
X123761825Y-105700434D02*
X123428492Y-105224243D01*
X123190397Y-105700434D02*
X123190397Y-104700434D01*
X123190397Y-104700434D02*
X123571349Y-104700434D01*
X123571349Y-104700434D02*
X123666587Y-104748053D01*
X123666587Y-104748053D02*
X123714206Y-104795672D01*
X123714206Y-104795672D02*
X123761825Y-104890910D01*
X123761825Y-104890910D02*
X123761825Y-105033767D01*
X123761825Y-105033767D02*
X123714206Y-105129005D01*
X123714206Y-105129005D02*
X123666587Y-105176624D01*
X123666587Y-105176624D02*
X123571349Y-105224243D01*
X123571349Y-105224243D02*
X123190397Y-105224243D01*
X124333254Y-105129005D02*
X124238016Y-105081386D01*
X124238016Y-105081386D02*
X124190397Y-105033767D01*
X124190397Y-105033767D02*
X124142778Y-104938529D01*
X124142778Y-104938529D02*
X124142778Y-104890910D01*
X124142778Y-104890910D02*
X124190397Y-104795672D01*
X124190397Y-104795672D02*
X124238016Y-104748053D01*
X124238016Y-104748053D02*
X124333254Y-104700434D01*
X124333254Y-104700434D02*
X124523730Y-104700434D01*
X124523730Y-104700434D02*
X124618968Y-104748053D01*
X124618968Y-104748053D02*
X124666587Y-104795672D01*
X124666587Y-104795672D02*
X124714206Y-104890910D01*
X124714206Y-104890910D02*
X124714206Y-104938529D01*
X124714206Y-104938529D02*
X124666587Y-105033767D01*
X124666587Y-105033767D02*
X124618968Y-105081386D01*
X124618968Y-105081386D02*
X124523730Y-105129005D01*
X124523730Y-105129005D02*
X124333254Y-105129005D01*
X124333254Y-105129005D02*
X124238016Y-105176624D01*
X124238016Y-105176624D02*
X124190397Y-105224243D01*
X124190397Y-105224243D02*
X124142778Y-105319481D01*
X124142778Y-105319481D02*
X124142778Y-105509957D01*
X124142778Y-105509957D02*
X124190397Y-105605195D01*
X124190397Y-105605195D02*
X124238016Y-105652815D01*
X124238016Y-105652815D02*
X124333254Y-105700434D01*
X124333254Y-105700434D02*
X124523730Y-105700434D01*
X124523730Y-105700434D02*
X124618968Y-105652815D01*
X124618968Y-105652815D02*
X124666587Y-105605195D01*
X124666587Y-105605195D02*
X124714206Y-105509957D01*
X124714206Y-105509957D02*
X124714206Y-105319481D01*
X124714206Y-105319481D02*
X124666587Y-105224243D01*
X124666587Y-105224243D02*
X124618968Y-105176624D01*
X124618968Y-105176624D02*
X124523730Y-105129005D01*
X128198968Y-99920434D02*
X128198968Y-100634719D01*
X128198968Y-100634719D02*
X128151349Y-100777576D01*
X128151349Y-100777576D02*
X128056111Y-100872815D01*
X128056111Y-100872815D02*
X127913254Y-100920434D01*
X127913254Y-100920434D02*
X127818016Y-100920434D01*
X129198968Y-100920434D02*
X128627540Y-100920434D01*
X128913254Y-100920434D02*
X128913254Y-99920434D01*
X128913254Y-99920434D02*
X128818016Y-100063291D01*
X128818016Y-100063291D02*
X128722778Y-100158529D01*
X128722778Y-100158529D02*
X128627540Y-100206148D01*
X129770397Y-100349005D02*
X129675159Y-100301386D01*
X129675159Y-100301386D02*
X129627540Y-100253767D01*
X129627540Y-100253767D02*
X129579921Y-100158529D01*
X129579921Y-100158529D02*
X129579921Y-100110910D01*
X129579921Y-100110910D02*
X129627540Y-100015672D01*
X129627540Y-100015672D02*
X129675159Y-99968053D01*
X129675159Y-99968053D02*
X129770397Y-99920434D01*
X129770397Y-99920434D02*
X129960873Y-99920434D01*
X129960873Y-99920434D02*
X130056111Y-99968053D01*
X130056111Y-99968053D02*
X130103730Y-100015672D01*
X130103730Y-100015672D02*
X130151349Y-100110910D01*
X130151349Y-100110910D02*
X130151349Y-100158529D01*
X130151349Y-100158529D02*
X130103730Y-100253767D01*
X130103730Y-100253767D02*
X130056111Y-100301386D01*
X130056111Y-100301386D02*
X129960873Y-100349005D01*
X129960873Y-100349005D02*
X129770397Y-100349005D01*
X129770397Y-100349005D02*
X129675159Y-100396624D01*
X129675159Y-100396624D02*
X129627540Y-100444243D01*
X129627540Y-100444243D02*
X129579921Y-100539481D01*
X129579921Y-100539481D02*
X129579921Y-100729957D01*
X129579921Y-100729957D02*
X129627540Y-100825195D01*
X129627540Y-100825195D02*
X129675159Y-100872815D01*
X129675159Y-100872815D02*
X129770397Y-100920434D01*
X129770397Y-100920434D02*
X129960873Y-100920434D01*
X129960873Y-100920434D02*
X130056111Y-100872815D01*
X130056111Y-100872815D02*
X130103730Y-100825195D01*
X130103730Y-100825195D02*
X130151349Y-100729957D01*
X130151349Y-100729957D02*
X130151349Y-100539481D01*
X130151349Y-100539481D02*
X130103730Y-100444243D01*
X130103730Y-100444243D02*
X130056111Y-100396624D01*
X130056111Y-100396624D02*
X129960873Y-100349005D01*
X77381287Y-58874134D02*
X77952715Y-58874134D01*
X77667001Y-59874134D02*
X77667001Y-58874134D01*
X78857477Y-59874134D02*
X78524144Y-59397943D01*
X78286049Y-59874134D02*
X78286049Y-58874134D01*
X78286049Y-58874134D02*
X78667001Y-58874134D01*
X78667001Y-58874134D02*
X78762239Y-58921753D01*
X78762239Y-58921753D02*
X78809858Y-58969372D01*
X78809858Y-58969372D02*
X78857477Y-59064610D01*
X78857477Y-59064610D02*
X78857477Y-59207467D01*
X78857477Y-59207467D02*
X78809858Y-59302705D01*
X78809858Y-59302705D02*
X78762239Y-59350324D01*
X78762239Y-59350324D02*
X78667001Y-59397943D01*
X78667001Y-59397943D02*
X78286049Y-59397943D01*
X79809858Y-59874134D02*
X79238430Y-59874134D01*
X79524144Y-59874134D02*
X79524144Y-58874134D01*
X79524144Y-58874134D02*
X79428906Y-59016991D01*
X79428906Y-59016991D02*
X79333668Y-59112229D01*
X79333668Y-59112229D02*
X79238430Y-59159848D01*
X69244368Y-25975434D02*
X69244368Y-26689719D01*
X69244368Y-26689719D02*
X69196749Y-26832576D01*
X69196749Y-26832576D02*
X69101511Y-26927815D01*
X69101511Y-26927815D02*
X68958654Y-26975434D01*
X68958654Y-26975434D02*
X68863416Y-26975434D01*
X69672940Y-26070672D02*
X69720559Y-26023053D01*
X69720559Y-26023053D02*
X69815797Y-25975434D01*
X69815797Y-25975434D02*
X70053892Y-25975434D01*
X70053892Y-25975434D02*
X70149130Y-26023053D01*
X70149130Y-26023053D02*
X70196749Y-26070672D01*
X70196749Y-26070672D02*
X70244368Y-26165910D01*
X70244368Y-26165910D02*
X70244368Y-26261148D01*
X70244368Y-26261148D02*
X70196749Y-26404005D01*
X70196749Y-26404005D02*
X69625321Y-26975434D01*
X69625321Y-26975434D02*
X70244368Y-26975434D01*
X71196749Y-26975434D02*
X70625321Y-26975434D01*
X70911035Y-26975434D02*
X70911035Y-25975434D01*
X70911035Y-25975434D02*
X70815797Y-26118291D01*
X70815797Y-26118291D02*
X70720559Y-26213529D01*
X70720559Y-26213529D02*
X70625321Y-26261148D01*
X146450687Y-79594434D02*
X146450687Y-80403957D01*
X146450687Y-80403957D02*
X146498306Y-80499195D01*
X146498306Y-80499195D02*
X146545925Y-80546815D01*
X146545925Y-80546815D02*
X146641163Y-80594434D01*
X146641163Y-80594434D02*
X146831639Y-80594434D01*
X146831639Y-80594434D02*
X146926877Y-80546815D01*
X146926877Y-80546815D02*
X146974496Y-80499195D01*
X146974496Y-80499195D02*
X147022115Y-80403957D01*
X147022115Y-80403957D02*
X147022115Y-79594434D01*
X147926877Y-79927767D02*
X147926877Y-80594434D01*
X147688782Y-79546815D02*
X147450687Y-80261100D01*
X147450687Y-80261100D02*
X148069734Y-80261100D01*
X175361187Y-115735434D02*
X175361187Y-114735434D01*
X175361187Y-115211624D02*
X175932615Y-115211624D01*
X175932615Y-115735434D02*
X175932615Y-114735434D01*
X176837377Y-115068767D02*
X176837377Y-115735434D01*
X176599282Y-114687815D02*
X176361187Y-115402100D01*
X176361187Y-115402100D02*
X176980234Y-115402100D01*
X114407619Y-29079723D02*
X115121904Y-29079723D01*
X115121904Y-29079723D02*
X115264761Y-29127342D01*
X115264761Y-29127342D02*
X115360000Y-29222580D01*
X115360000Y-29222580D02*
X115407619Y-29365437D01*
X115407619Y-29365437D02*
X115407619Y-29460675D01*
X114502857Y-28651151D02*
X114455238Y-28603532D01*
X114455238Y-28603532D02*
X114407619Y-28508294D01*
X114407619Y-28508294D02*
X114407619Y-28270199D01*
X114407619Y-28270199D02*
X114455238Y-28174961D01*
X114455238Y-28174961D02*
X114502857Y-28127342D01*
X114502857Y-28127342D02*
X114598095Y-28079723D01*
X114598095Y-28079723D02*
X114693333Y-28079723D01*
X114693333Y-28079723D02*
X114836190Y-28127342D01*
X114836190Y-28127342D02*
X115407619Y-28698770D01*
X115407619Y-28698770D02*
X115407619Y-28079723D01*
X114502857Y-27698770D02*
X114455238Y-27651151D01*
X114455238Y-27651151D02*
X114407619Y-27555913D01*
X114407619Y-27555913D02*
X114407619Y-27317818D01*
X114407619Y-27317818D02*
X114455238Y-27222580D01*
X114455238Y-27222580D02*
X114502857Y-27174961D01*
X114502857Y-27174961D02*
X114598095Y-27127342D01*
X114598095Y-27127342D02*
X114693333Y-27127342D01*
X114693333Y-27127342D02*
X114836190Y-27174961D01*
X114836190Y-27174961D02*
X115407619Y-27746389D01*
X115407619Y-27746389D02*
X115407619Y-27127342D01*
X131695865Y-52336995D02*
X131648246Y-52384615D01*
X131648246Y-52384615D02*
X131505389Y-52432234D01*
X131505389Y-52432234D02*
X131410151Y-52432234D01*
X131410151Y-52432234D02*
X131267294Y-52384615D01*
X131267294Y-52384615D02*
X131172056Y-52289376D01*
X131172056Y-52289376D02*
X131124437Y-52194138D01*
X131124437Y-52194138D02*
X131076818Y-52003662D01*
X131076818Y-52003662D02*
X131076818Y-51860805D01*
X131076818Y-51860805D02*
X131124437Y-51670329D01*
X131124437Y-51670329D02*
X131172056Y-51575091D01*
X131172056Y-51575091D02*
X131267294Y-51479853D01*
X131267294Y-51479853D02*
X131410151Y-51432234D01*
X131410151Y-51432234D02*
X131505389Y-51432234D01*
X131505389Y-51432234D02*
X131648246Y-51479853D01*
X131648246Y-51479853D02*
X131695865Y-51527472D01*
X132648246Y-52432234D02*
X132076818Y-52432234D01*
X132362532Y-52432234D02*
X132362532Y-51432234D01*
X132362532Y-51432234D02*
X132267294Y-51575091D01*
X132267294Y-51575091D02*
X132172056Y-51670329D01*
X132172056Y-51670329D02*
X132076818Y-51717948D01*
X133124437Y-52432234D02*
X133314913Y-52432234D01*
X133314913Y-52432234D02*
X133410151Y-52384615D01*
X133410151Y-52384615D02*
X133457770Y-52336995D01*
X133457770Y-52336995D02*
X133553008Y-52194138D01*
X133553008Y-52194138D02*
X133600627Y-52003662D01*
X133600627Y-52003662D02*
X133600627Y-51622710D01*
X133600627Y-51622710D02*
X133553008Y-51527472D01*
X133553008Y-51527472D02*
X133505389Y-51479853D01*
X133505389Y-51479853D02*
X133410151Y-51432234D01*
X133410151Y-51432234D02*
X133219675Y-51432234D01*
X133219675Y-51432234D02*
X133124437Y-51479853D01*
X133124437Y-51479853D02*
X133076818Y-51527472D01*
X133076818Y-51527472D02*
X133029199Y-51622710D01*
X133029199Y-51622710D02*
X133029199Y-51860805D01*
X133029199Y-51860805D02*
X133076818Y-51956043D01*
X133076818Y-51956043D02*
X133124437Y-52003662D01*
X133124437Y-52003662D02*
X133219675Y-52051281D01*
X133219675Y-52051281D02*
X133410151Y-52051281D01*
X133410151Y-52051281D02*
X133505389Y-52003662D01*
X133505389Y-52003662D02*
X133553008Y-51956043D01*
X133553008Y-51956043D02*
X133600627Y-51860805D01*
D11*
X86971587Y-28637834D02*
X86971587Y-29447357D01*
X86971587Y-29447357D02*
X87019206Y-29542595D01*
X87019206Y-29542595D02*
X87066825Y-29590215D01*
X87066825Y-29590215D02*
X87162063Y-29637834D01*
X87162063Y-29637834D02*
X87352539Y-29637834D01*
X87352539Y-29637834D02*
X87447777Y-29590215D01*
X87447777Y-29590215D02*
X87495396Y-29542595D01*
X87495396Y-29542595D02*
X87543015Y-29447357D01*
X87543015Y-29447357D02*
X87543015Y-28637834D01*
X87971587Y-28733072D02*
X88019206Y-28685453D01*
X88019206Y-28685453D02*
X88114444Y-28637834D01*
X88114444Y-28637834D02*
X88352539Y-28637834D01*
X88352539Y-28637834D02*
X88447777Y-28685453D01*
X88447777Y-28685453D02*
X88495396Y-28733072D01*
X88495396Y-28733072D02*
X88543015Y-28828310D01*
X88543015Y-28828310D02*
X88543015Y-28923548D01*
X88543015Y-28923548D02*
X88495396Y-29066405D01*
X88495396Y-29066405D02*
X87923968Y-29637834D01*
X87923968Y-29637834D02*
X88543015Y-29637834D01*
D10*
X107593911Y-70285472D02*
X107117720Y-70618805D01*
X107593911Y-70856900D02*
X106593911Y-70856900D01*
X106593911Y-70856900D02*
X106593911Y-70475948D01*
X106593911Y-70475948D02*
X106641530Y-70380710D01*
X106641530Y-70380710D02*
X106689149Y-70333091D01*
X106689149Y-70333091D02*
X106784387Y-70285472D01*
X106784387Y-70285472D02*
X106927244Y-70285472D01*
X106927244Y-70285472D02*
X107022482Y-70333091D01*
X107022482Y-70333091D02*
X107070101Y-70380710D01*
X107070101Y-70380710D02*
X107117720Y-70475948D01*
X107117720Y-70475948D02*
X107117720Y-70856900D01*
X107593911Y-69333091D02*
X107593911Y-69904519D01*
X107593911Y-69618805D02*
X106593911Y-69618805D01*
X106593911Y-69618805D02*
X106736768Y-69714043D01*
X106736768Y-69714043D02*
X106832006Y-69809281D01*
X106832006Y-69809281D02*
X106879625Y-69904519D01*
X106593911Y-68475948D02*
X106593911Y-68666424D01*
X106593911Y-68666424D02*
X106641530Y-68761662D01*
X106641530Y-68761662D02*
X106689149Y-68809281D01*
X106689149Y-68809281D02*
X106832006Y-68904519D01*
X106832006Y-68904519D02*
X107022482Y-68952138D01*
X107022482Y-68952138D02*
X107403434Y-68952138D01*
X107403434Y-68952138D02*
X107498672Y-68904519D01*
X107498672Y-68904519D02*
X107546292Y-68856900D01*
X107546292Y-68856900D02*
X107593911Y-68761662D01*
X107593911Y-68761662D02*
X107593911Y-68571186D01*
X107593911Y-68571186D02*
X107546292Y-68475948D01*
X107546292Y-68475948D02*
X107498672Y-68428329D01*
X107498672Y-68428329D02*
X107403434Y-68380710D01*
X107403434Y-68380710D02*
X107165339Y-68380710D01*
X107165339Y-68380710D02*
X107070101Y-68428329D01*
X107070101Y-68428329D02*
X107022482Y-68475948D01*
X107022482Y-68475948D02*
X106974863Y-68571186D01*
X106974863Y-68571186D02*
X106974863Y-68761662D01*
X106974863Y-68761662D02*
X107022482Y-68856900D01*
X107022482Y-68856900D02*
X107070101Y-68904519D01*
X107070101Y-68904519D02*
X107165339Y-68952138D01*
X168310568Y-99920434D02*
X168310568Y-100634719D01*
X168310568Y-100634719D02*
X168262949Y-100777576D01*
X168262949Y-100777576D02*
X168167711Y-100872815D01*
X168167711Y-100872815D02*
X168024854Y-100920434D01*
X168024854Y-100920434D02*
X167929616Y-100920434D01*
X169310568Y-100920434D02*
X168739140Y-100920434D01*
X169024854Y-100920434D02*
X169024854Y-99920434D01*
X169024854Y-99920434D02*
X168929616Y-100063291D01*
X168929616Y-100063291D02*
X168834378Y-100158529D01*
X168834378Y-100158529D02*
X168739140Y-100206148D01*
X169643902Y-99920434D02*
X170262949Y-99920434D01*
X170262949Y-99920434D02*
X169929616Y-100301386D01*
X169929616Y-100301386D02*
X170072473Y-100301386D01*
X170072473Y-100301386D02*
X170167711Y-100349005D01*
X170167711Y-100349005D02*
X170215330Y-100396624D01*
X170215330Y-100396624D02*
X170262949Y-100491862D01*
X170262949Y-100491862D02*
X170262949Y-100729957D01*
X170262949Y-100729957D02*
X170215330Y-100825195D01*
X170215330Y-100825195D02*
X170167711Y-100872815D01*
X170167711Y-100872815D02*
X170072473Y-100920434D01*
X170072473Y-100920434D02*
X169786759Y-100920434D01*
X169786759Y-100920434D02*
X169691521Y-100872815D01*
X169691521Y-100872815D02*
X169643902Y-100825195D01*
X98169758Y-77639434D02*
X98169758Y-78353719D01*
X98169758Y-78353719D02*
X98122139Y-78496576D01*
X98122139Y-78496576D02*
X98026901Y-78591815D01*
X98026901Y-78591815D02*
X97884044Y-78639434D01*
X97884044Y-78639434D02*
X97788806Y-78639434D01*
X99122139Y-77639434D02*
X98645949Y-77639434D01*
X98645949Y-77639434D02*
X98598330Y-78115624D01*
X98598330Y-78115624D02*
X98645949Y-78068005D01*
X98645949Y-78068005D02*
X98741187Y-78020386D01*
X98741187Y-78020386D02*
X98979282Y-78020386D01*
X98979282Y-78020386D02*
X99074520Y-78068005D01*
X99074520Y-78068005D02*
X99122139Y-78115624D01*
X99122139Y-78115624D02*
X99169758Y-78210862D01*
X99169758Y-78210862D02*
X99169758Y-78448957D01*
X99169758Y-78448957D02*
X99122139Y-78544195D01*
X99122139Y-78544195D02*
X99074520Y-78591815D01*
X99074520Y-78591815D02*
X98979282Y-78639434D01*
X98979282Y-78639434D02*
X98741187Y-78639434D01*
X98741187Y-78639434D02*
X98645949Y-78591815D01*
X98645949Y-78591815D02*
X98598330Y-78544195D01*
X35361187Y-115735434D02*
X35361187Y-114735434D01*
X35361187Y-115211624D02*
X35932615Y-115211624D01*
X35932615Y-115735434D02*
X35932615Y-114735434D01*
X36313568Y-114735434D02*
X36932615Y-114735434D01*
X36932615Y-114735434D02*
X36599282Y-115116386D01*
X36599282Y-115116386D02*
X36742139Y-115116386D01*
X36742139Y-115116386D02*
X36837377Y-115164005D01*
X36837377Y-115164005D02*
X36884996Y-115211624D01*
X36884996Y-115211624D02*
X36932615Y-115306862D01*
X36932615Y-115306862D02*
X36932615Y-115544957D01*
X36932615Y-115544957D02*
X36884996Y-115640195D01*
X36884996Y-115640195D02*
X36837377Y-115687815D01*
X36837377Y-115687815D02*
X36742139Y-115735434D01*
X36742139Y-115735434D02*
X36456425Y-115735434D01*
X36456425Y-115735434D02*
X36361187Y-115687815D01*
X36361187Y-115687815D02*
X36313568Y-115640195D01*
X92773758Y-119167434D02*
X92773758Y-119881719D01*
X92773758Y-119881719D02*
X92726139Y-120024576D01*
X92726139Y-120024576D02*
X92630901Y-120119815D01*
X92630901Y-120119815D02*
X92488044Y-120167434D01*
X92488044Y-120167434D02*
X92392806Y-120167434D01*
X93249949Y-120167434D02*
X93249949Y-119167434D01*
X93249949Y-119167434D02*
X93630901Y-119167434D01*
X93630901Y-119167434D02*
X93726139Y-119215053D01*
X93726139Y-119215053D02*
X93773758Y-119262672D01*
X93773758Y-119262672D02*
X93821377Y-119357910D01*
X93821377Y-119357910D02*
X93821377Y-119500767D01*
X93821377Y-119500767D02*
X93773758Y-119596005D01*
X93773758Y-119596005D02*
X93726139Y-119643624D01*
X93726139Y-119643624D02*
X93630901Y-119691243D01*
X93630901Y-119691243D02*
X93249949Y-119691243D01*
X94154711Y-119167434D02*
X94773758Y-119167434D01*
X94773758Y-119167434D02*
X94440425Y-119548386D01*
X94440425Y-119548386D02*
X94583282Y-119548386D01*
X94583282Y-119548386D02*
X94678520Y-119596005D01*
X94678520Y-119596005D02*
X94726139Y-119643624D01*
X94726139Y-119643624D02*
X94773758Y-119738862D01*
X94773758Y-119738862D02*
X94773758Y-119976957D01*
X94773758Y-119976957D02*
X94726139Y-120072195D01*
X94726139Y-120072195D02*
X94678520Y-120119815D01*
X94678520Y-120119815D02*
X94583282Y-120167434D01*
X94583282Y-120167434D02*
X94297568Y-120167434D01*
X94297568Y-120167434D02*
X94202330Y-120119815D01*
X94202330Y-120119815D02*
X94154711Y-120072195D01*
X77381287Y-78666184D02*
X77952715Y-78666184D01*
X77667001Y-79666184D02*
X77667001Y-78666184D01*
X78857477Y-79666184D02*
X78524144Y-79189993D01*
X78286049Y-79666184D02*
X78286049Y-78666184D01*
X78286049Y-78666184D02*
X78667001Y-78666184D01*
X78667001Y-78666184D02*
X78762239Y-78713803D01*
X78762239Y-78713803D02*
X78809858Y-78761422D01*
X78809858Y-78761422D02*
X78857477Y-78856660D01*
X78857477Y-78856660D02*
X78857477Y-78999517D01*
X78857477Y-78999517D02*
X78809858Y-79094755D01*
X78809858Y-79094755D02*
X78762239Y-79142374D01*
X78762239Y-79142374D02*
X78667001Y-79189993D01*
X78667001Y-79189993D02*
X78286049Y-79189993D01*
X79238430Y-78761422D02*
X79286049Y-78713803D01*
X79286049Y-78713803D02*
X79381287Y-78666184D01*
X79381287Y-78666184D02*
X79619382Y-78666184D01*
X79619382Y-78666184D02*
X79714620Y-78713803D01*
X79714620Y-78713803D02*
X79762239Y-78761422D01*
X79762239Y-78761422D02*
X79809858Y-78856660D01*
X79809858Y-78856660D02*
X79809858Y-78951898D01*
X79809858Y-78951898D02*
X79762239Y-79094755D01*
X79762239Y-79094755D02*
X79190811Y-79666184D01*
X79190811Y-79666184D02*
X79809858Y-79666184D01*
X92773758Y-99355434D02*
X92773758Y-100069719D01*
X92773758Y-100069719D02*
X92726139Y-100212576D01*
X92726139Y-100212576D02*
X92630901Y-100307815D01*
X92630901Y-100307815D02*
X92488044Y-100355434D01*
X92488044Y-100355434D02*
X92392806Y-100355434D01*
X93249949Y-100355434D02*
X93249949Y-99355434D01*
X93249949Y-99355434D02*
X93630901Y-99355434D01*
X93630901Y-99355434D02*
X93726139Y-99403053D01*
X93726139Y-99403053D02*
X93773758Y-99450672D01*
X93773758Y-99450672D02*
X93821377Y-99545910D01*
X93821377Y-99545910D02*
X93821377Y-99688767D01*
X93821377Y-99688767D02*
X93773758Y-99784005D01*
X93773758Y-99784005D02*
X93726139Y-99831624D01*
X93726139Y-99831624D02*
X93630901Y-99879243D01*
X93630901Y-99879243D02*
X93249949Y-99879243D01*
X94202330Y-99450672D02*
X94249949Y-99403053D01*
X94249949Y-99403053D02*
X94345187Y-99355434D01*
X94345187Y-99355434D02*
X94583282Y-99355434D01*
X94583282Y-99355434D02*
X94678520Y-99403053D01*
X94678520Y-99403053D02*
X94726139Y-99450672D01*
X94726139Y-99450672D02*
X94773758Y-99545910D01*
X94773758Y-99545910D02*
X94773758Y-99641148D01*
X94773758Y-99641148D02*
X94726139Y-99784005D01*
X94726139Y-99784005D02*
X94154711Y-100355434D01*
X94154711Y-100355434D02*
X94773758Y-100355434D01*
X159426758Y-100300434D02*
X159426758Y-101014719D01*
X159426758Y-101014719D02*
X159379139Y-101157576D01*
X159379139Y-101157576D02*
X159283901Y-101252815D01*
X159283901Y-101252815D02*
X159141044Y-101300434D01*
X159141044Y-101300434D02*
X159045806Y-101300434D01*
X159902949Y-101300434D02*
X159902949Y-100300434D01*
X159902949Y-100300434D02*
X160283901Y-100300434D01*
X160283901Y-100300434D02*
X160379139Y-100348053D01*
X160379139Y-100348053D02*
X160426758Y-100395672D01*
X160426758Y-100395672D02*
X160474377Y-100490910D01*
X160474377Y-100490910D02*
X160474377Y-100633767D01*
X160474377Y-100633767D02*
X160426758Y-100729005D01*
X160426758Y-100729005D02*
X160379139Y-100776624D01*
X160379139Y-100776624D02*
X160283901Y-100824243D01*
X160283901Y-100824243D02*
X159902949Y-100824243D01*
X161331520Y-100633767D02*
X161331520Y-101300434D01*
X161093425Y-100252815D02*
X160855330Y-100967100D01*
X160855330Y-100967100D02*
X161474377Y-100967100D01*
X50320911Y-94974272D02*
X49844720Y-95307605D01*
X50320911Y-95545700D02*
X49320911Y-95545700D01*
X49320911Y-95545700D02*
X49320911Y-95164748D01*
X49320911Y-95164748D02*
X49368530Y-95069510D01*
X49368530Y-95069510D02*
X49416149Y-95021891D01*
X49416149Y-95021891D02*
X49511387Y-94974272D01*
X49511387Y-94974272D02*
X49654244Y-94974272D01*
X49654244Y-94974272D02*
X49749482Y-95021891D01*
X49749482Y-95021891D02*
X49797101Y-95069510D01*
X49797101Y-95069510D02*
X49844720Y-95164748D01*
X49844720Y-95164748D02*
X49844720Y-95545700D01*
X50320911Y-94021891D02*
X50320911Y-94593319D01*
X50320911Y-94307605D02*
X49320911Y-94307605D01*
X49320911Y-94307605D02*
X49463768Y-94402843D01*
X49463768Y-94402843D02*
X49559006Y-94498081D01*
X49559006Y-94498081D02*
X49606625Y-94593319D01*
X50320911Y-93069510D02*
X50320911Y-93640938D01*
X50320911Y-93355224D02*
X49320911Y-93355224D01*
X49320911Y-93355224D02*
X49463768Y-93450462D01*
X49463768Y-93450462D02*
X49559006Y-93545700D01*
X49559006Y-93545700D02*
X49606625Y-93640938D01*
X95131911Y-91661972D02*
X94655720Y-91995305D01*
X95131911Y-92233400D02*
X94131911Y-92233400D01*
X94131911Y-92233400D02*
X94131911Y-91852448D01*
X94131911Y-91852448D02*
X94179530Y-91757210D01*
X94179530Y-91757210D02*
X94227149Y-91709591D01*
X94227149Y-91709591D02*
X94322387Y-91661972D01*
X94322387Y-91661972D02*
X94465244Y-91661972D01*
X94465244Y-91661972D02*
X94560482Y-91709591D01*
X94560482Y-91709591D02*
X94608101Y-91757210D01*
X94608101Y-91757210D02*
X94655720Y-91852448D01*
X94655720Y-91852448D02*
X94655720Y-92233400D01*
X95131911Y-90709591D02*
X95131911Y-91281019D01*
X95131911Y-90995305D02*
X94131911Y-90995305D01*
X94131911Y-90995305D02*
X94274768Y-91090543D01*
X94274768Y-91090543D02*
X94370006Y-91185781D01*
X94370006Y-91185781D02*
X94417625Y-91281019D01*
X94131911Y-90376257D02*
X94131911Y-89709591D01*
X94131911Y-89709591D02*
X95131911Y-90138162D01*
X92773758Y-78019434D02*
X92773758Y-78733719D01*
X92773758Y-78733719D02*
X92726139Y-78876576D01*
X92726139Y-78876576D02*
X92630901Y-78971815D01*
X92630901Y-78971815D02*
X92488044Y-79019434D01*
X92488044Y-79019434D02*
X92392806Y-79019434D01*
X93249949Y-79019434D02*
X93249949Y-78019434D01*
X93249949Y-78019434D02*
X93630901Y-78019434D01*
X93630901Y-78019434D02*
X93726139Y-78067053D01*
X93726139Y-78067053D02*
X93773758Y-78114672D01*
X93773758Y-78114672D02*
X93821377Y-78209910D01*
X93821377Y-78209910D02*
X93821377Y-78352767D01*
X93821377Y-78352767D02*
X93773758Y-78448005D01*
X93773758Y-78448005D02*
X93726139Y-78495624D01*
X93726139Y-78495624D02*
X93630901Y-78543243D01*
X93630901Y-78543243D02*
X93249949Y-78543243D01*
X94773758Y-79019434D02*
X94202330Y-79019434D01*
X94488044Y-79019434D02*
X94488044Y-78019434D01*
X94488044Y-78019434D02*
X94392806Y-78162291D01*
X94392806Y-78162291D02*
X94297568Y-78257529D01*
X94297568Y-78257529D02*
X94202330Y-78305148D01*
X141443568Y-51858434D02*
X141443568Y-52572719D01*
X141443568Y-52572719D02*
X141395949Y-52715576D01*
X141395949Y-52715576D02*
X141300711Y-52810815D01*
X141300711Y-52810815D02*
X141157854Y-52858434D01*
X141157854Y-52858434D02*
X141062616Y-52858434D01*
X142443568Y-52858434D02*
X141872140Y-52858434D01*
X142157854Y-52858434D02*
X142157854Y-51858434D01*
X142157854Y-51858434D02*
X142062616Y-52001291D01*
X142062616Y-52001291D02*
X141967378Y-52096529D01*
X141967378Y-52096529D02*
X141872140Y-52144148D01*
X143348330Y-51858434D02*
X142872140Y-51858434D01*
X142872140Y-51858434D02*
X142824521Y-52334624D01*
X142824521Y-52334624D02*
X142872140Y-52287005D01*
X142872140Y-52287005D02*
X142967378Y-52239386D01*
X142967378Y-52239386D02*
X143205473Y-52239386D01*
X143205473Y-52239386D02*
X143300711Y-52287005D01*
X143300711Y-52287005D02*
X143348330Y-52334624D01*
X143348330Y-52334624D02*
X143395949Y-52429862D01*
X143395949Y-52429862D02*
X143395949Y-52667957D01*
X143395949Y-52667957D02*
X143348330Y-52763195D01*
X143348330Y-52763195D02*
X143300711Y-52810815D01*
X143300711Y-52810815D02*
X143205473Y-52858434D01*
X143205473Y-52858434D02*
X142967378Y-52858434D01*
X142967378Y-52858434D02*
X142872140Y-52810815D01*
X142872140Y-52810815D02*
X142824521Y-52763195D01*
X148677658Y-122850434D02*
X148677658Y-123564719D01*
X148677658Y-123564719D02*
X148630039Y-123707576D01*
X148630039Y-123707576D02*
X148534801Y-123802815D01*
X148534801Y-123802815D02*
X148391944Y-123850434D01*
X148391944Y-123850434D02*
X148296706Y-123850434D01*
X149296706Y-123279005D02*
X149201468Y-123231386D01*
X149201468Y-123231386D02*
X149153849Y-123183767D01*
X149153849Y-123183767D02*
X149106230Y-123088529D01*
X149106230Y-123088529D02*
X149106230Y-123040910D01*
X149106230Y-123040910D02*
X149153849Y-122945672D01*
X149153849Y-122945672D02*
X149201468Y-122898053D01*
X149201468Y-122898053D02*
X149296706Y-122850434D01*
X149296706Y-122850434D02*
X149487182Y-122850434D01*
X149487182Y-122850434D02*
X149582420Y-122898053D01*
X149582420Y-122898053D02*
X149630039Y-122945672D01*
X149630039Y-122945672D02*
X149677658Y-123040910D01*
X149677658Y-123040910D02*
X149677658Y-123088529D01*
X149677658Y-123088529D02*
X149630039Y-123183767D01*
X149630039Y-123183767D02*
X149582420Y-123231386D01*
X149582420Y-123231386D02*
X149487182Y-123279005D01*
X149487182Y-123279005D02*
X149296706Y-123279005D01*
X149296706Y-123279005D02*
X149201468Y-123326624D01*
X149201468Y-123326624D02*
X149153849Y-123374243D01*
X149153849Y-123374243D02*
X149106230Y-123469481D01*
X149106230Y-123469481D02*
X149106230Y-123659957D01*
X149106230Y-123659957D02*
X149153849Y-123755195D01*
X149153849Y-123755195D02*
X149201468Y-123802815D01*
X149201468Y-123802815D02*
X149296706Y-123850434D01*
X149296706Y-123850434D02*
X149487182Y-123850434D01*
X149487182Y-123850434D02*
X149582420Y-123802815D01*
X149582420Y-123802815D02*
X149630039Y-123755195D01*
X149630039Y-123755195D02*
X149677658Y-123659957D01*
X149677658Y-123659957D02*
X149677658Y-123469481D01*
X149677658Y-123469481D02*
X149630039Y-123374243D01*
X149630039Y-123374243D02*
X149582420Y-123326624D01*
X149582420Y-123326624D02*
X149487182Y-123279005D01*
X107466911Y-113084472D02*
X106990720Y-113417805D01*
X107466911Y-113655900D02*
X106466911Y-113655900D01*
X106466911Y-113655900D02*
X106466911Y-113274948D01*
X106466911Y-113274948D02*
X106514530Y-113179710D01*
X106514530Y-113179710D02*
X106562149Y-113132091D01*
X106562149Y-113132091D02*
X106657387Y-113084472D01*
X106657387Y-113084472D02*
X106800244Y-113084472D01*
X106800244Y-113084472D02*
X106895482Y-113132091D01*
X106895482Y-113132091D02*
X106943101Y-113179710D01*
X106943101Y-113179710D02*
X106990720Y-113274948D01*
X106990720Y-113274948D02*
X106990720Y-113655900D01*
X106562149Y-112703519D02*
X106514530Y-112655900D01*
X106514530Y-112655900D02*
X106466911Y-112560662D01*
X106466911Y-112560662D02*
X106466911Y-112322567D01*
X106466911Y-112322567D02*
X106514530Y-112227329D01*
X106514530Y-112227329D02*
X106562149Y-112179710D01*
X106562149Y-112179710D02*
X106657387Y-112132091D01*
X106657387Y-112132091D02*
X106752625Y-112132091D01*
X106752625Y-112132091D02*
X106895482Y-112179710D01*
X106895482Y-112179710D02*
X107466911Y-112751138D01*
X107466911Y-112751138D02*
X107466911Y-112132091D01*
X106562149Y-111751138D02*
X106514530Y-111703519D01*
X106514530Y-111703519D02*
X106466911Y-111608281D01*
X106466911Y-111608281D02*
X106466911Y-111370186D01*
X106466911Y-111370186D02*
X106514530Y-111274948D01*
X106514530Y-111274948D02*
X106562149Y-111227329D01*
X106562149Y-111227329D02*
X106657387Y-111179710D01*
X106657387Y-111179710D02*
X106752625Y-111179710D01*
X106752625Y-111179710D02*
X106895482Y-111227329D01*
X106895482Y-111227329D02*
X107466911Y-111798757D01*
X107466911Y-111798757D02*
X107466911Y-111179710D01*
X34727911Y-56690019D02*
X35537434Y-56690019D01*
X35537434Y-56690019D02*
X35632672Y-56642400D01*
X35632672Y-56642400D02*
X35680292Y-56594781D01*
X35680292Y-56594781D02*
X35727911Y-56499543D01*
X35727911Y-56499543D02*
X35727911Y-56309067D01*
X35727911Y-56309067D02*
X35680292Y-56213829D01*
X35680292Y-56213829D02*
X35632672Y-56166210D01*
X35632672Y-56166210D02*
X35537434Y-56118591D01*
X35537434Y-56118591D02*
X34727911Y-56118591D01*
X35727911Y-55118591D02*
X35727911Y-55690019D01*
X35727911Y-55404305D02*
X34727911Y-55404305D01*
X34727911Y-55404305D02*
X34870768Y-55499543D01*
X34870768Y-55499543D02*
X34966006Y-55594781D01*
X34966006Y-55594781D02*
X35013625Y-55690019D01*
X60399911Y-94821872D02*
X59923720Y-95155205D01*
X60399911Y-95393300D02*
X59399911Y-95393300D01*
X59399911Y-95393300D02*
X59399911Y-95012348D01*
X59399911Y-95012348D02*
X59447530Y-94917110D01*
X59447530Y-94917110D02*
X59495149Y-94869491D01*
X59495149Y-94869491D02*
X59590387Y-94821872D01*
X59590387Y-94821872D02*
X59733244Y-94821872D01*
X59733244Y-94821872D02*
X59828482Y-94869491D01*
X59828482Y-94869491D02*
X59876101Y-94917110D01*
X59876101Y-94917110D02*
X59923720Y-95012348D01*
X59923720Y-95012348D02*
X59923720Y-95393300D01*
X60399911Y-93869491D02*
X60399911Y-94440919D01*
X60399911Y-94155205D02*
X59399911Y-94155205D01*
X59399911Y-94155205D02*
X59542768Y-94250443D01*
X59542768Y-94250443D02*
X59638006Y-94345681D01*
X59638006Y-94345681D02*
X59685625Y-94440919D01*
X59399911Y-93536157D02*
X59399911Y-92917110D01*
X59399911Y-92917110D02*
X59780863Y-93250443D01*
X59780863Y-93250443D02*
X59780863Y-93107586D01*
X59780863Y-93107586D02*
X59828482Y-93012348D01*
X59828482Y-93012348D02*
X59876101Y-92964729D01*
X59876101Y-92964729D02*
X59971339Y-92917110D01*
X59971339Y-92917110D02*
X60209434Y-92917110D01*
X60209434Y-92917110D02*
X60304672Y-92964729D01*
X60304672Y-92964729D02*
X60352292Y-93012348D01*
X60352292Y-93012348D02*
X60399911Y-93107586D01*
X60399911Y-93107586D02*
X60399911Y-93393300D01*
X60399911Y-93393300D02*
X60352292Y-93488538D01*
X60352292Y-93488538D02*
X60304672Y-93536157D01*
X110305476Y-51350434D02*
X110305476Y-52064719D01*
X110305476Y-52064719D02*
X110257857Y-52207576D01*
X110257857Y-52207576D02*
X110162619Y-52302815D01*
X110162619Y-52302815D02*
X110019762Y-52350434D01*
X110019762Y-52350434D02*
X109924524Y-52350434D01*
X110734048Y-51445672D02*
X110781667Y-51398053D01*
X110781667Y-51398053D02*
X110876905Y-51350434D01*
X110876905Y-51350434D02*
X111115000Y-51350434D01*
X111115000Y-51350434D02*
X111210238Y-51398053D01*
X111210238Y-51398053D02*
X111257857Y-51445672D01*
X111257857Y-51445672D02*
X111305476Y-51540910D01*
X111305476Y-51540910D02*
X111305476Y-51636148D01*
X111305476Y-51636148D02*
X111257857Y-51779005D01*
X111257857Y-51779005D02*
X110686429Y-52350434D01*
X110686429Y-52350434D02*
X111305476Y-52350434D01*
X111638810Y-51350434D02*
X112257857Y-51350434D01*
X112257857Y-51350434D02*
X111924524Y-51731386D01*
X111924524Y-51731386D02*
X112067381Y-51731386D01*
X112067381Y-51731386D02*
X112162619Y-51779005D01*
X112162619Y-51779005D02*
X112210238Y-51826624D01*
X112210238Y-51826624D02*
X112257857Y-51921862D01*
X112257857Y-51921862D02*
X112257857Y-52159957D01*
X112257857Y-52159957D02*
X112210238Y-52255195D01*
X112210238Y-52255195D02*
X112162619Y-52302815D01*
X112162619Y-52302815D02*
X112067381Y-52350434D01*
X112067381Y-52350434D02*
X111781667Y-52350434D01*
X111781667Y-52350434D02*
X111686429Y-52302815D01*
X111686429Y-52302815D02*
X111638810Y-52255195D01*
X108895672Y-81080472D02*
X108943292Y-81128091D01*
X108943292Y-81128091D02*
X108990911Y-81270948D01*
X108990911Y-81270948D02*
X108990911Y-81366186D01*
X108990911Y-81366186D02*
X108943292Y-81509043D01*
X108943292Y-81509043D02*
X108848053Y-81604281D01*
X108848053Y-81604281D02*
X108752815Y-81651900D01*
X108752815Y-81651900D02*
X108562339Y-81699519D01*
X108562339Y-81699519D02*
X108419482Y-81699519D01*
X108419482Y-81699519D02*
X108229006Y-81651900D01*
X108229006Y-81651900D02*
X108133768Y-81604281D01*
X108133768Y-81604281D02*
X108038530Y-81509043D01*
X108038530Y-81509043D02*
X107990911Y-81366186D01*
X107990911Y-81366186D02*
X107990911Y-81270948D01*
X107990911Y-81270948D02*
X108038530Y-81128091D01*
X108038530Y-81128091D02*
X108086149Y-81080472D01*
X108990911Y-80128091D02*
X108990911Y-80699519D01*
X108990911Y-80413805D02*
X107990911Y-80413805D01*
X107990911Y-80413805D02*
X108133768Y-80509043D01*
X108133768Y-80509043D02*
X108229006Y-80604281D01*
X108229006Y-80604281D02*
X108276625Y-80699519D01*
X107990911Y-79223329D02*
X107990911Y-79699519D01*
X107990911Y-79699519D02*
X108467101Y-79747138D01*
X108467101Y-79747138D02*
X108419482Y-79699519D01*
X108419482Y-79699519D02*
X108371863Y-79604281D01*
X108371863Y-79604281D02*
X108371863Y-79366186D01*
X108371863Y-79366186D02*
X108419482Y-79270948D01*
X108419482Y-79270948D02*
X108467101Y-79223329D01*
X108467101Y-79223329D02*
X108562339Y-79175710D01*
X108562339Y-79175710D02*
X108800434Y-79175710D01*
X108800434Y-79175710D02*
X108895672Y-79223329D01*
X108895672Y-79223329D02*
X108943292Y-79270948D01*
X108943292Y-79270948D02*
X108990911Y-79366186D01*
X108990911Y-79366186D02*
X108990911Y-79604281D01*
X108990911Y-79604281D02*
X108943292Y-79699519D01*
X108943292Y-79699519D02*
X108895672Y-79747138D01*
X54474285Y-101587734D02*
X54474285Y-102302019D01*
X54474285Y-102302019D02*
X54426666Y-102444876D01*
X54426666Y-102444876D02*
X54331428Y-102540115D01*
X54331428Y-102540115D02*
X54188571Y-102587734D01*
X54188571Y-102587734D02*
X54093333Y-102587734D01*
X55379047Y-101587734D02*
X55188571Y-101587734D01*
X55188571Y-101587734D02*
X55093333Y-101635353D01*
X55093333Y-101635353D02*
X55045714Y-101682972D01*
X55045714Y-101682972D02*
X54950476Y-101825829D01*
X54950476Y-101825829D02*
X54902857Y-102016305D01*
X54902857Y-102016305D02*
X54902857Y-102397257D01*
X54902857Y-102397257D02*
X54950476Y-102492495D01*
X54950476Y-102492495D02*
X54998095Y-102540115D01*
X54998095Y-102540115D02*
X55093333Y-102587734D01*
X55093333Y-102587734D02*
X55283809Y-102587734D01*
X55283809Y-102587734D02*
X55379047Y-102540115D01*
X55379047Y-102540115D02*
X55426666Y-102492495D01*
X55426666Y-102492495D02*
X55474285Y-102397257D01*
X55474285Y-102397257D02*
X55474285Y-102159162D01*
X55474285Y-102159162D02*
X55426666Y-102063924D01*
X55426666Y-102063924D02*
X55379047Y-102016305D01*
X55379047Y-102016305D02*
X55283809Y-101968686D01*
X55283809Y-101968686D02*
X55093333Y-101968686D01*
X55093333Y-101968686D02*
X54998095Y-102016305D01*
X54998095Y-102016305D02*
X54950476Y-102063924D01*
X54950476Y-102063924D02*
X54902857Y-102159162D01*
X101327911Y-112957472D02*
X100851720Y-113290805D01*
X101327911Y-113528900D02*
X100327911Y-113528900D01*
X100327911Y-113528900D02*
X100327911Y-113147948D01*
X100327911Y-113147948D02*
X100375530Y-113052710D01*
X100375530Y-113052710D02*
X100423149Y-113005091D01*
X100423149Y-113005091D02*
X100518387Y-112957472D01*
X100518387Y-112957472D02*
X100661244Y-112957472D01*
X100661244Y-112957472D02*
X100756482Y-113005091D01*
X100756482Y-113005091D02*
X100804101Y-113052710D01*
X100804101Y-113052710D02*
X100851720Y-113147948D01*
X100851720Y-113147948D02*
X100851720Y-113528900D01*
X100423149Y-112576519D02*
X100375530Y-112528900D01*
X100375530Y-112528900D02*
X100327911Y-112433662D01*
X100327911Y-112433662D02*
X100327911Y-112195567D01*
X100327911Y-112195567D02*
X100375530Y-112100329D01*
X100375530Y-112100329D02*
X100423149Y-112052710D01*
X100423149Y-112052710D02*
X100518387Y-112005091D01*
X100518387Y-112005091D02*
X100613625Y-112005091D01*
X100613625Y-112005091D02*
X100756482Y-112052710D01*
X100756482Y-112052710D02*
X101327911Y-112624138D01*
X101327911Y-112624138D02*
X101327911Y-112005091D01*
X101327911Y-111052710D02*
X101327911Y-111624138D01*
X101327911Y-111338424D02*
X100327911Y-111338424D01*
X100327911Y-111338424D02*
X100470768Y-111433662D01*
X100470768Y-111433662D02*
X100566006Y-111528900D01*
X100566006Y-111528900D02*
X100613625Y-111624138D01*
X117792758Y-71096434D02*
X117792758Y-71810719D01*
X117792758Y-71810719D02*
X117745139Y-71953576D01*
X117745139Y-71953576D02*
X117649901Y-72048815D01*
X117649901Y-72048815D02*
X117507044Y-72096434D01*
X117507044Y-72096434D02*
X117411806Y-72096434D01*
X118173711Y-71096434D02*
X118792758Y-71096434D01*
X118792758Y-71096434D02*
X118459425Y-71477386D01*
X118459425Y-71477386D02*
X118602282Y-71477386D01*
X118602282Y-71477386D02*
X118697520Y-71525005D01*
X118697520Y-71525005D02*
X118745139Y-71572624D01*
X118745139Y-71572624D02*
X118792758Y-71667862D01*
X118792758Y-71667862D02*
X118792758Y-71905957D01*
X118792758Y-71905957D02*
X118745139Y-72001195D01*
X118745139Y-72001195D02*
X118697520Y-72048815D01*
X118697520Y-72048815D02*
X118602282Y-72096434D01*
X118602282Y-72096434D02*
X118316568Y-72096434D01*
X118316568Y-72096434D02*
X118221330Y-72048815D01*
X118221330Y-72048815D02*
X118173711Y-72001195D01*
X52903911Y-94948872D02*
X52427720Y-95282205D01*
X52903911Y-95520300D02*
X51903911Y-95520300D01*
X51903911Y-95520300D02*
X51903911Y-95139348D01*
X51903911Y-95139348D02*
X51951530Y-95044110D01*
X51951530Y-95044110D02*
X51999149Y-94996491D01*
X51999149Y-94996491D02*
X52094387Y-94948872D01*
X52094387Y-94948872D02*
X52237244Y-94948872D01*
X52237244Y-94948872D02*
X52332482Y-94996491D01*
X52332482Y-94996491D02*
X52380101Y-95044110D01*
X52380101Y-95044110D02*
X52427720Y-95139348D01*
X52427720Y-95139348D02*
X52427720Y-95520300D01*
X52903911Y-93996491D02*
X52903911Y-94567919D01*
X52903911Y-94282205D02*
X51903911Y-94282205D01*
X51903911Y-94282205D02*
X52046768Y-94377443D01*
X52046768Y-94377443D02*
X52142006Y-94472681D01*
X52142006Y-94472681D02*
X52189625Y-94567919D01*
X51999149Y-93615538D02*
X51951530Y-93567919D01*
X51951530Y-93567919D02*
X51903911Y-93472681D01*
X51903911Y-93472681D02*
X51903911Y-93234586D01*
X51903911Y-93234586D02*
X51951530Y-93139348D01*
X51951530Y-93139348D02*
X51999149Y-93091729D01*
X51999149Y-93091729D02*
X52094387Y-93044110D01*
X52094387Y-93044110D02*
X52189625Y-93044110D01*
X52189625Y-93044110D02*
X52332482Y-93091729D01*
X52332482Y-93091729D02*
X52903911Y-93663157D01*
X52903911Y-93663157D02*
X52903911Y-93044110D01*
X165336511Y-59866748D02*
X166050796Y-59866748D01*
X166050796Y-59866748D02*
X166193653Y-59914367D01*
X166193653Y-59914367D02*
X166288892Y-60009605D01*
X166288892Y-60009605D02*
X166336511Y-60152462D01*
X166336511Y-60152462D02*
X166336511Y-60247700D01*
X165431749Y-59438176D02*
X165384130Y-59390557D01*
X165384130Y-59390557D02*
X165336511Y-59295319D01*
X165336511Y-59295319D02*
X165336511Y-59057224D01*
X165336511Y-59057224D02*
X165384130Y-58961986D01*
X165384130Y-58961986D02*
X165431749Y-58914367D01*
X165431749Y-58914367D02*
X165526987Y-58866748D01*
X165526987Y-58866748D02*
X165622225Y-58866748D01*
X165622225Y-58866748D02*
X165765082Y-58914367D01*
X165765082Y-58914367D02*
X166336511Y-59485795D01*
X166336511Y-59485795D02*
X166336511Y-58866748D01*
X103704819Y-49079523D02*
X104419104Y-49079523D01*
X104419104Y-49079523D02*
X104561961Y-49127142D01*
X104561961Y-49127142D02*
X104657200Y-49222380D01*
X104657200Y-49222380D02*
X104704819Y-49365237D01*
X104704819Y-49365237D02*
X104704819Y-49460475D01*
X103800057Y-48650951D02*
X103752438Y-48603332D01*
X103752438Y-48603332D02*
X103704819Y-48508094D01*
X103704819Y-48508094D02*
X103704819Y-48269999D01*
X103704819Y-48269999D02*
X103752438Y-48174761D01*
X103752438Y-48174761D02*
X103800057Y-48127142D01*
X103800057Y-48127142D02*
X103895295Y-48079523D01*
X103895295Y-48079523D02*
X103990533Y-48079523D01*
X103990533Y-48079523D02*
X104133390Y-48127142D01*
X104133390Y-48127142D02*
X104704819Y-48698570D01*
X104704819Y-48698570D02*
X104704819Y-48079523D01*
X103704819Y-47460475D02*
X103704819Y-47365237D01*
X103704819Y-47365237D02*
X103752438Y-47269999D01*
X103752438Y-47269999D02*
X103800057Y-47222380D01*
X103800057Y-47222380D02*
X103895295Y-47174761D01*
X103895295Y-47174761D02*
X104085771Y-47127142D01*
X104085771Y-47127142D02*
X104323866Y-47127142D01*
X104323866Y-47127142D02*
X104514342Y-47174761D01*
X104514342Y-47174761D02*
X104609580Y-47222380D01*
X104609580Y-47222380D02*
X104657200Y-47269999D01*
X104657200Y-47269999D02*
X104704819Y-47365237D01*
X104704819Y-47365237D02*
X104704819Y-47460475D01*
X104704819Y-47460475D02*
X104657200Y-47555713D01*
X104657200Y-47555713D02*
X104609580Y-47603332D01*
X104609580Y-47603332D02*
X104514342Y-47650951D01*
X104514342Y-47650951D02*
X104323866Y-47698570D01*
X104323866Y-47698570D02*
X104085771Y-47698570D01*
X104085771Y-47698570D02*
X103895295Y-47650951D01*
X103895295Y-47650951D02*
X103800057Y-47603332D01*
X103800057Y-47603332D02*
X103752438Y-47555713D01*
X103752438Y-47555713D02*
X103704819Y-47460475D01*
X130225311Y-72139672D02*
X129749120Y-72473005D01*
X130225311Y-72711100D02*
X129225311Y-72711100D01*
X129225311Y-72711100D02*
X129225311Y-72330148D01*
X129225311Y-72330148D02*
X129272930Y-72234910D01*
X129272930Y-72234910D02*
X129320549Y-72187291D01*
X129320549Y-72187291D02*
X129415787Y-72139672D01*
X129415787Y-72139672D02*
X129558644Y-72139672D01*
X129558644Y-72139672D02*
X129653882Y-72187291D01*
X129653882Y-72187291D02*
X129701501Y-72234910D01*
X129701501Y-72234910D02*
X129749120Y-72330148D01*
X129749120Y-72330148D02*
X129749120Y-72711100D01*
X130225311Y-71187291D02*
X130225311Y-71758719D01*
X130225311Y-71473005D02*
X129225311Y-71473005D01*
X129225311Y-71473005D02*
X129368168Y-71568243D01*
X129368168Y-71568243D02*
X129463406Y-71663481D01*
X129463406Y-71663481D02*
X129511025Y-71758719D01*
X129225311Y-70568243D02*
X129225311Y-70473005D01*
X129225311Y-70473005D02*
X129272930Y-70377767D01*
X129272930Y-70377767D02*
X129320549Y-70330148D01*
X129320549Y-70330148D02*
X129415787Y-70282529D01*
X129415787Y-70282529D02*
X129606263Y-70234910D01*
X129606263Y-70234910D02*
X129844358Y-70234910D01*
X129844358Y-70234910D02*
X130034834Y-70282529D01*
X130034834Y-70282529D02*
X130130072Y-70330148D01*
X130130072Y-70330148D02*
X130177692Y-70377767D01*
X130177692Y-70377767D02*
X130225311Y-70473005D01*
X130225311Y-70473005D02*
X130225311Y-70568243D01*
X130225311Y-70568243D02*
X130177692Y-70663481D01*
X130177692Y-70663481D02*
X130130072Y-70711100D01*
X130130072Y-70711100D02*
X130034834Y-70758719D01*
X130034834Y-70758719D02*
X129844358Y-70806338D01*
X129844358Y-70806338D02*
X129606263Y-70806338D01*
X129606263Y-70806338D02*
X129415787Y-70758719D01*
X129415787Y-70758719D02*
X129320549Y-70711100D01*
X129320549Y-70711100D02*
X129272930Y-70663481D01*
X129272930Y-70663481D02*
X129225311Y-70568243D01*
X97693568Y-118787434D02*
X97693568Y-119501719D01*
X97693568Y-119501719D02*
X97645949Y-119644576D01*
X97645949Y-119644576D02*
X97550711Y-119739815D01*
X97550711Y-119739815D02*
X97407854Y-119787434D01*
X97407854Y-119787434D02*
X97312616Y-119787434D01*
X98693568Y-119787434D02*
X98122140Y-119787434D01*
X98407854Y-119787434D02*
X98407854Y-118787434D01*
X98407854Y-118787434D02*
X98312616Y-118930291D01*
X98312616Y-118930291D02*
X98217378Y-119025529D01*
X98217378Y-119025529D02*
X98122140Y-119073148D01*
X99074521Y-118882672D02*
X99122140Y-118835053D01*
X99122140Y-118835053D02*
X99217378Y-118787434D01*
X99217378Y-118787434D02*
X99455473Y-118787434D01*
X99455473Y-118787434D02*
X99550711Y-118835053D01*
X99550711Y-118835053D02*
X99598330Y-118882672D01*
X99598330Y-118882672D02*
X99645949Y-118977910D01*
X99645949Y-118977910D02*
X99645949Y-119073148D01*
X99645949Y-119073148D02*
X99598330Y-119216005D01*
X99598330Y-119216005D02*
X99026902Y-119787434D01*
X99026902Y-119787434D02*
X99645949Y-119787434D01*
X143764325Y-105700434D02*
X143430992Y-105224243D01*
X143192897Y-105700434D02*
X143192897Y-104700434D01*
X143192897Y-104700434D02*
X143573849Y-104700434D01*
X143573849Y-104700434D02*
X143669087Y-104748053D01*
X143669087Y-104748053D02*
X143716706Y-104795672D01*
X143716706Y-104795672D02*
X143764325Y-104890910D01*
X143764325Y-104890910D02*
X143764325Y-105033767D01*
X143764325Y-105033767D02*
X143716706Y-105129005D01*
X143716706Y-105129005D02*
X143669087Y-105176624D01*
X143669087Y-105176624D02*
X143573849Y-105224243D01*
X143573849Y-105224243D02*
X143192897Y-105224243D01*
X144097659Y-104700434D02*
X144764325Y-104700434D01*
X144764325Y-104700434D02*
X144335754Y-105700434D01*
X164548187Y-79594434D02*
X164548187Y-80403957D01*
X164548187Y-80403957D02*
X164595806Y-80499195D01*
X164595806Y-80499195D02*
X164643425Y-80546815D01*
X164643425Y-80546815D02*
X164738663Y-80594434D01*
X164738663Y-80594434D02*
X164929139Y-80594434D01*
X164929139Y-80594434D02*
X165024377Y-80546815D01*
X165024377Y-80546815D02*
X165071996Y-80499195D01*
X165071996Y-80499195D02*
X165119615Y-80403957D01*
X165119615Y-80403957D02*
X165119615Y-79594434D01*
X165500568Y-79594434D02*
X166119615Y-79594434D01*
X166119615Y-79594434D02*
X165786282Y-79975386D01*
X165786282Y-79975386D02*
X165929139Y-79975386D01*
X165929139Y-79975386D02*
X166024377Y-80023005D01*
X166024377Y-80023005D02*
X166071996Y-80070624D01*
X166071996Y-80070624D02*
X166119615Y-80165862D01*
X166119615Y-80165862D02*
X166119615Y-80403957D01*
X166119615Y-80403957D02*
X166071996Y-80499195D01*
X166071996Y-80499195D02*
X166024377Y-80546815D01*
X166024377Y-80546815D02*
X165929139Y-80594434D01*
X165929139Y-80594434D02*
X165643425Y-80594434D01*
X165643425Y-80594434D02*
X165548187Y-80546815D01*
X165548187Y-80546815D02*
X165500568Y-80499195D01*
X35254101Y-100111948D02*
X35254101Y-100445281D01*
X35777911Y-100445281D02*
X34777911Y-100445281D01*
X34777911Y-100445281D02*
X34777911Y-99969091D01*
X35777911Y-99064329D02*
X35777911Y-99635757D01*
X35777911Y-99350043D02*
X34777911Y-99350043D01*
X34777911Y-99350043D02*
X34920768Y-99445281D01*
X34920768Y-99445281D02*
X35016006Y-99540519D01*
X35016006Y-99540519D02*
X35063625Y-99635757D01*
X97693568Y-98975434D02*
X97693568Y-99689719D01*
X97693568Y-99689719D02*
X97645949Y-99832576D01*
X97645949Y-99832576D02*
X97550711Y-99927815D01*
X97550711Y-99927815D02*
X97407854Y-99975434D01*
X97407854Y-99975434D02*
X97312616Y-99975434D01*
X98693568Y-99975434D02*
X98122140Y-99975434D01*
X98407854Y-99975434D02*
X98407854Y-98975434D01*
X98407854Y-98975434D02*
X98312616Y-99118291D01*
X98312616Y-99118291D02*
X98217378Y-99213529D01*
X98217378Y-99213529D02*
X98122140Y-99261148D01*
X99645949Y-99975434D02*
X99074521Y-99975434D01*
X99360235Y-99975434D02*
X99360235Y-98975434D01*
X99360235Y-98975434D02*
X99264997Y-99118291D01*
X99264997Y-99118291D02*
X99169759Y-99213529D01*
X99169759Y-99213529D02*
X99074521Y-99261148D01*
X122266568Y-71002434D02*
X122266568Y-71716719D01*
X122266568Y-71716719D02*
X122218949Y-71859576D01*
X122218949Y-71859576D02*
X122123711Y-71954815D01*
X122123711Y-71954815D02*
X121980854Y-72002434D01*
X121980854Y-72002434D02*
X121885616Y-72002434D01*
X123266568Y-72002434D02*
X122695140Y-72002434D01*
X122980854Y-72002434D02*
X122980854Y-71002434D01*
X122980854Y-71002434D02*
X122885616Y-71145291D01*
X122885616Y-71145291D02*
X122790378Y-71240529D01*
X122790378Y-71240529D02*
X122695140Y-71288148D01*
X123885616Y-71002434D02*
X123980854Y-71002434D01*
X123980854Y-71002434D02*
X124076092Y-71050053D01*
X124076092Y-71050053D02*
X124123711Y-71097672D01*
X124123711Y-71097672D02*
X124171330Y-71192910D01*
X124171330Y-71192910D02*
X124218949Y-71383386D01*
X124218949Y-71383386D02*
X124218949Y-71621481D01*
X124218949Y-71621481D02*
X124171330Y-71811957D01*
X124171330Y-71811957D02*
X124123711Y-71907195D01*
X124123711Y-71907195D02*
X124076092Y-71954815D01*
X124076092Y-71954815D02*
X123980854Y-72002434D01*
X123980854Y-72002434D02*
X123885616Y-72002434D01*
X123885616Y-72002434D02*
X123790378Y-71954815D01*
X123790378Y-71954815D02*
X123742759Y-71907195D01*
X123742759Y-71907195D02*
X123695140Y-71811957D01*
X123695140Y-71811957D02*
X123647521Y-71621481D01*
X123647521Y-71621481D02*
X123647521Y-71383386D01*
X123647521Y-71383386D02*
X123695140Y-71192910D01*
X123695140Y-71192910D02*
X123742759Y-71097672D01*
X123742759Y-71097672D02*
X123790378Y-71050053D01*
X123790378Y-71050053D02*
X123885616Y-71002434D01*
X163873425Y-105700434D02*
X163540092Y-105224243D01*
X163301997Y-105700434D02*
X163301997Y-104700434D01*
X163301997Y-104700434D02*
X163682949Y-104700434D01*
X163682949Y-104700434D02*
X163778187Y-104748053D01*
X163778187Y-104748053D02*
X163825806Y-104795672D01*
X163825806Y-104795672D02*
X163873425Y-104890910D01*
X163873425Y-104890910D02*
X163873425Y-105033767D01*
X163873425Y-105033767D02*
X163825806Y-105129005D01*
X163825806Y-105129005D02*
X163778187Y-105176624D01*
X163778187Y-105176624D02*
X163682949Y-105224243D01*
X163682949Y-105224243D02*
X163301997Y-105224243D01*
X164730568Y-104700434D02*
X164540092Y-104700434D01*
X164540092Y-104700434D02*
X164444854Y-104748053D01*
X164444854Y-104748053D02*
X164397235Y-104795672D01*
X164397235Y-104795672D02*
X164301997Y-104938529D01*
X164301997Y-104938529D02*
X164254378Y-105129005D01*
X164254378Y-105129005D02*
X164254378Y-105509957D01*
X164254378Y-105509957D02*
X164301997Y-105605195D01*
X164301997Y-105605195D02*
X164349616Y-105652815D01*
X164349616Y-105652815D02*
X164444854Y-105700434D01*
X164444854Y-105700434D02*
X164635330Y-105700434D01*
X164635330Y-105700434D02*
X164730568Y-105652815D01*
X164730568Y-105652815D02*
X164778187Y-105605195D01*
X164778187Y-105605195D02*
X164825806Y-105509957D01*
X164825806Y-105509957D02*
X164825806Y-105271862D01*
X164825806Y-105271862D02*
X164778187Y-105176624D01*
X164778187Y-105176624D02*
X164730568Y-105129005D01*
X164730568Y-105129005D02*
X164635330Y-105081386D01*
X164635330Y-105081386D02*
X164444854Y-105081386D01*
X164444854Y-105081386D02*
X164349616Y-105129005D01*
X164349616Y-105129005D02*
X164301997Y-105176624D01*
X164301997Y-105176624D02*
X164254378Y-105271862D01*
X167976072Y-54791472D02*
X168023692Y-54839091D01*
X168023692Y-54839091D02*
X168071311Y-54981948D01*
X168071311Y-54981948D02*
X168071311Y-55077186D01*
X168071311Y-55077186D02*
X168023692Y-55220043D01*
X168023692Y-55220043D02*
X167928453Y-55315281D01*
X167928453Y-55315281D02*
X167833215Y-55362900D01*
X167833215Y-55362900D02*
X167642739Y-55410519D01*
X167642739Y-55410519D02*
X167499882Y-55410519D01*
X167499882Y-55410519D02*
X167309406Y-55362900D01*
X167309406Y-55362900D02*
X167214168Y-55315281D01*
X167214168Y-55315281D02*
X167118930Y-55220043D01*
X167118930Y-55220043D02*
X167071311Y-55077186D01*
X167071311Y-55077186D02*
X167071311Y-54981948D01*
X167071311Y-54981948D02*
X167118930Y-54839091D01*
X167118930Y-54839091D02*
X167166549Y-54791472D01*
X168071311Y-53839091D02*
X168071311Y-54410519D01*
X168071311Y-54124805D02*
X167071311Y-54124805D01*
X167071311Y-54124805D02*
X167214168Y-54220043D01*
X167214168Y-54220043D02*
X167309406Y-54315281D01*
X167309406Y-54315281D02*
X167357025Y-54410519D01*
X167071311Y-52981948D02*
X167071311Y-53172424D01*
X167071311Y-53172424D02*
X167118930Y-53267662D01*
X167118930Y-53267662D02*
X167166549Y-53315281D01*
X167166549Y-53315281D02*
X167309406Y-53410519D01*
X167309406Y-53410519D02*
X167499882Y-53458138D01*
X167499882Y-53458138D02*
X167880834Y-53458138D01*
X167880834Y-53458138D02*
X167976072Y-53410519D01*
X167976072Y-53410519D02*
X168023692Y-53362900D01*
X168023692Y-53362900D02*
X168071311Y-53267662D01*
X168071311Y-53267662D02*
X168071311Y-53077186D01*
X168071311Y-53077186D02*
X168023692Y-52981948D01*
X168023692Y-52981948D02*
X167976072Y-52934329D01*
X167976072Y-52934329D02*
X167880834Y-52886710D01*
X167880834Y-52886710D02*
X167642739Y-52886710D01*
X167642739Y-52886710D02*
X167547501Y-52934329D01*
X167547501Y-52934329D02*
X167499882Y-52981948D01*
X167499882Y-52981948D02*
X167452263Y-53077186D01*
X167452263Y-53077186D02*
X167452263Y-53267662D01*
X167452263Y-53267662D02*
X167499882Y-53362900D01*
X167499882Y-53362900D02*
X167547501Y-53410519D01*
X167547501Y-53410519D02*
X167642739Y-53458138D01*
X157446196Y-39330900D02*
X157446196Y-38854710D01*
X157731911Y-39426138D02*
X156731911Y-39092805D01*
X156731911Y-39092805D02*
X157731911Y-38759472D01*
X157731911Y-37902329D02*
X157731911Y-38473757D01*
X157731911Y-38188043D02*
X156731911Y-38188043D01*
X156731911Y-38188043D02*
X156874768Y-38283281D01*
X156874768Y-38283281D02*
X156970006Y-38378519D01*
X156970006Y-38378519D02*
X157017625Y-38473757D01*
X136329968Y-71383434D02*
X136329968Y-72097719D01*
X136329968Y-72097719D02*
X136282349Y-72240576D01*
X136282349Y-72240576D02*
X136187111Y-72335815D01*
X136187111Y-72335815D02*
X136044254Y-72383434D01*
X136044254Y-72383434D02*
X135949016Y-72383434D01*
X137329968Y-72383434D02*
X136758540Y-72383434D01*
X137044254Y-72383434D02*
X137044254Y-71383434D01*
X137044254Y-71383434D02*
X136949016Y-71526291D01*
X136949016Y-71526291D02*
X136853778Y-71621529D01*
X136853778Y-71621529D02*
X136758540Y-71669148D01*
X137663302Y-71383434D02*
X138329968Y-71383434D01*
X138329968Y-71383434D02*
X137901397Y-72383434D01*
X54501425Y-34098795D02*
X54453806Y-34146415D01*
X54453806Y-34146415D02*
X54310949Y-34194034D01*
X54310949Y-34194034D02*
X54215711Y-34194034D01*
X54215711Y-34194034D02*
X54072854Y-34146415D01*
X54072854Y-34146415D02*
X53977616Y-34051176D01*
X53977616Y-34051176D02*
X53929997Y-33955938D01*
X53929997Y-33955938D02*
X53882378Y-33765462D01*
X53882378Y-33765462D02*
X53882378Y-33622605D01*
X53882378Y-33622605D02*
X53929997Y-33432129D01*
X53929997Y-33432129D02*
X53977616Y-33336891D01*
X53977616Y-33336891D02*
X54072854Y-33241653D01*
X54072854Y-33241653D02*
X54215711Y-33194034D01*
X54215711Y-33194034D02*
X54310949Y-33194034D01*
X54310949Y-33194034D02*
X54453806Y-33241653D01*
X54453806Y-33241653D02*
X54501425Y-33289272D01*
X55453806Y-34194034D02*
X54882378Y-34194034D01*
X55168092Y-34194034D02*
X55168092Y-33194034D01*
X55168092Y-33194034D02*
X55072854Y-33336891D01*
X55072854Y-33336891D02*
X54977616Y-33432129D01*
X54977616Y-33432129D02*
X54882378Y-33479748D01*
X107593911Y-91621472D02*
X107117720Y-91954805D01*
X107593911Y-92192900D02*
X106593911Y-92192900D01*
X106593911Y-92192900D02*
X106593911Y-91811948D01*
X106593911Y-91811948D02*
X106641530Y-91716710D01*
X106641530Y-91716710D02*
X106689149Y-91669091D01*
X106689149Y-91669091D02*
X106784387Y-91621472D01*
X106784387Y-91621472D02*
X106927244Y-91621472D01*
X106927244Y-91621472D02*
X107022482Y-91669091D01*
X107022482Y-91669091D02*
X107070101Y-91716710D01*
X107070101Y-91716710D02*
X107117720Y-91811948D01*
X107117720Y-91811948D02*
X107117720Y-92192900D01*
X107593911Y-90669091D02*
X107593911Y-91240519D01*
X107593911Y-90954805D02*
X106593911Y-90954805D01*
X106593911Y-90954805D02*
X106736768Y-91050043D01*
X106736768Y-91050043D02*
X106832006Y-91145281D01*
X106832006Y-91145281D02*
X106879625Y-91240519D01*
X107593911Y-90192900D02*
X107593911Y-90002424D01*
X107593911Y-90002424D02*
X107546292Y-89907186D01*
X107546292Y-89907186D02*
X107498672Y-89859567D01*
X107498672Y-89859567D02*
X107355815Y-89764329D01*
X107355815Y-89764329D02*
X107165339Y-89716710D01*
X107165339Y-89716710D02*
X106784387Y-89716710D01*
X106784387Y-89716710D02*
X106689149Y-89764329D01*
X106689149Y-89764329D02*
X106641530Y-89811948D01*
X106641530Y-89811948D02*
X106593911Y-89907186D01*
X106593911Y-89907186D02*
X106593911Y-90097662D01*
X106593911Y-90097662D02*
X106641530Y-90192900D01*
X106641530Y-90192900D02*
X106689149Y-90240519D01*
X106689149Y-90240519D02*
X106784387Y-90288138D01*
X106784387Y-90288138D02*
X107022482Y-90288138D01*
X107022482Y-90288138D02*
X107117720Y-90240519D01*
X107117720Y-90240519D02*
X107165339Y-90192900D01*
X107165339Y-90192900D02*
X107212958Y-90097662D01*
X107212958Y-90097662D02*
X107212958Y-89907186D01*
X107212958Y-89907186D02*
X107165339Y-89811948D01*
X107165339Y-89811948D02*
X107117720Y-89764329D01*
X107117720Y-89764329D02*
X107022482Y-89716710D01*
X117792758Y-56110434D02*
X117792758Y-56824719D01*
X117792758Y-56824719D02*
X117745139Y-56967576D01*
X117745139Y-56967576D02*
X117649901Y-57062815D01*
X117649901Y-57062815D02*
X117507044Y-57110434D01*
X117507044Y-57110434D02*
X117411806Y-57110434D01*
X118792758Y-57110434D02*
X118221330Y-57110434D01*
X118507044Y-57110434D02*
X118507044Y-56110434D01*
X118507044Y-56110434D02*
X118411806Y-56253291D01*
X118411806Y-56253291D02*
X118316568Y-56348529D01*
X118316568Y-56348529D02*
X118221330Y-56396148D01*
X119315158Y-100300434D02*
X119315158Y-101014719D01*
X119315158Y-101014719D02*
X119267539Y-101157576D01*
X119267539Y-101157576D02*
X119172301Y-101252815D01*
X119172301Y-101252815D02*
X119029444Y-101300434D01*
X119029444Y-101300434D02*
X118934206Y-101300434D01*
X119791349Y-101300434D02*
X119791349Y-100300434D01*
X119791349Y-100300434D02*
X120172301Y-100300434D01*
X120172301Y-100300434D02*
X120267539Y-100348053D01*
X120267539Y-100348053D02*
X120315158Y-100395672D01*
X120315158Y-100395672D02*
X120362777Y-100490910D01*
X120362777Y-100490910D02*
X120362777Y-100633767D01*
X120362777Y-100633767D02*
X120315158Y-100729005D01*
X120315158Y-100729005D02*
X120267539Y-100776624D01*
X120267539Y-100776624D02*
X120172301Y-100824243D01*
X120172301Y-100824243D02*
X119791349Y-100824243D01*
X121219920Y-100300434D02*
X121029444Y-100300434D01*
X121029444Y-100300434D02*
X120934206Y-100348053D01*
X120934206Y-100348053D02*
X120886587Y-100395672D01*
X120886587Y-100395672D02*
X120791349Y-100538529D01*
X120791349Y-100538529D02*
X120743730Y-100729005D01*
X120743730Y-100729005D02*
X120743730Y-101109957D01*
X120743730Y-101109957D02*
X120791349Y-101205195D01*
X120791349Y-101205195D02*
X120838968Y-101252815D01*
X120838968Y-101252815D02*
X120934206Y-101300434D01*
X120934206Y-101300434D02*
X121124682Y-101300434D01*
X121124682Y-101300434D02*
X121219920Y-101252815D01*
X121219920Y-101252815D02*
X121267539Y-101205195D01*
X121267539Y-101205195D02*
X121315158Y-101109957D01*
X121315158Y-101109957D02*
X121315158Y-100871862D01*
X121315158Y-100871862D02*
X121267539Y-100776624D01*
X121267539Y-100776624D02*
X121219920Y-100729005D01*
X121219920Y-100729005D02*
X121124682Y-100681386D01*
X121124682Y-100681386D02*
X120934206Y-100681386D01*
X120934206Y-100681386D02*
X120838968Y-100729005D01*
X120838968Y-100729005D02*
X120791349Y-100776624D01*
X120791349Y-100776624D02*
X120743730Y-100871862D01*
X168786758Y-122850434D02*
X168786758Y-123564719D01*
X168786758Y-123564719D02*
X168739139Y-123707576D01*
X168739139Y-123707576D02*
X168643901Y-123802815D01*
X168643901Y-123802815D02*
X168501044Y-123850434D01*
X168501044Y-123850434D02*
X168405806Y-123850434D01*
X169167711Y-122850434D02*
X169834377Y-122850434D01*
X169834377Y-122850434D02*
X169405806Y-123850434D01*
X95131911Y-112997972D02*
X94655720Y-113331305D01*
X95131911Y-113569400D02*
X94131911Y-113569400D01*
X94131911Y-113569400D02*
X94131911Y-113188448D01*
X94131911Y-113188448D02*
X94179530Y-113093210D01*
X94179530Y-113093210D02*
X94227149Y-113045591D01*
X94227149Y-113045591D02*
X94322387Y-112997972D01*
X94322387Y-112997972D02*
X94465244Y-112997972D01*
X94465244Y-112997972D02*
X94560482Y-113045591D01*
X94560482Y-113045591D02*
X94608101Y-113093210D01*
X94608101Y-113093210D02*
X94655720Y-113188448D01*
X94655720Y-113188448D02*
X94655720Y-113569400D01*
X94227149Y-112617019D02*
X94179530Y-112569400D01*
X94179530Y-112569400D02*
X94131911Y-112474162D01*
X94131911Y-112474162D02*
X94131911Y-112236067D01*
X94131911Y-112236067D02*
X94179530Y-112140829D01*
X94179530Y-112140829D02*
X94227149Y-112093210D01*
X94227149Y-112093210D02*
X94322387Y-112045591D01*
X94322387Y-112045591D02*
X94417625Y-112045591D01*
X94417625Y-112045591D02*
X94560482Y-112093210D01*
X94560482Y-112093210D02*
X95131911Y-112664638D01*
X95131911Y-112664638D02*
X95131911Y-112045591D01*
X94131911Y-111426543D02*
X94131911Y-111331305D01*
X94131911Y-111331305D02*
X94179530Y-111236067D01*
X94179530Y-111236067D02*
X94227149Y-111188448D01*
X94227149Y-111188448D02*
X94322387Y-111140829D01*
X94322387Y-111140829D02*
X94512863Y-111093210D01*
X94512863Y-111093210D02*
X94750958Y-111093210D01*
X94750958Y-111093210D02*
X94941434Y-111140829D01*
X94941434Y-111140829D02*
X95036672Y-111188448D01*
X95036672Y-111188448D02*
X95084292Y-111236067D01*
X95084292Y-111236067D02*
X95131911Y-111331305D01*
X95131911Y-111331305D02*
X95131911Y-111426543D01*
X95131911Y-111426543D02*
X95084292Y-111521781D01*
X95084292Y-111521781D02*
X95036672Y-111569400D01*
X95036672Y-111569400D02*
X94941434Y-111617019D01*
X94941434Y-111617019D02*
X94750958Y-111664638D01*
X94750958Y-111664638D02*
X94512863Y-111664638D01*
X94512863Y-111664638D02*
X94322387Y-111617019D01*
X94322387Y-111617019D02*
X94227149Y-111569400D01*
X94227149Y-111569400D02*
X94179530Y-111521781D01*
X94179530Y-111521781D02*
X94131911Y-111426543D01*
X128675158Y-122850434D02*
X128675158Y-123564719D01*
X128675158Y-123564719D02*
X128627539Y-123707576D01*
X128627539Y-123707576D02*
X128532301Y-123802815D01*
X128532301Y-123802815D02*
X128389444Y-123850434D01*
X128389444Y-123850434D02*
X128294206Y-123850434D01*
X129198968Y-123850434D02*
X129389444Y-123850434D01*
X129389444Y-123850434D02*
X129484682Y-123802815D01*
X129484682Y-123802815D02*
X129532301Y-123755195D01*
X129532301Y-123755195D02*
X129627539Y-123612338D01*
X129627539Y-123612338D02*
X129675158Y-123421862D01*
X129675158Y-123421862D02*
X129675158Y-123040910D01*
X129675158Y-123040910D02*
X129627539Y-122945672D01*
X129627539Y-122945672D02*
X129579920Y-122898053D01*
X129579920Y-122898053D02*
X129484682Y-122850434D01*
X129484682Y-122850434D02*
X129294206Y-122850434D01*
X129294206Y-122850434D02*
X129198968Y-122898053D01*
X129198968Y-122898053D02*
X129151349Y-122945672D01*
X129151349Y-122945672D02*
X129103730Y-123040910D01*
X129103730Y-123040910D02*
X129103730Y-123279005D01*
X129103730Y-123279005D02*
X129151349Y-123374243D01*
X129151349Y-123374243D02*
X129198968Y-123421862D01*
X129198968Y-123421862D02*
X129294206Y-123469481D01*
X129294206Y-123469481D02*
X129484682Y-123469481D01*
X129484682Y-123469481D02*
X129579920Y-123421862D01*
X129579920Y-123421862D02*
X129627539Y-123374243D01*
X129627539Y-123374243D02*
X129675158Y-123279005D01*
X128353187Y-79594434D02*
X128353187Y-80403957D01*
X128353187Y-80403957D02*
X128400806Y-80499195D01*
X128400806Y-80499195D02*
X128448425Y-80546815D01*
X128448425Y-80546815D02*
X128543663Y-80594434D01*
X128543663Y-80594434D02*
X128734139Y-80594434D01*
X128734139Y-80594434D02*
X128829377Y-80546815D01*
X128829377Y-80546815D02*
X128876996Y-80499195D01*
X128876996Y-80499195D02*
X128924615Y-80403957D01*
X128924615Y-80403957D02*
X128924615Y-79594434D01*
X129876996Y-79594434D02*
X129400806Y-79594434D01*
X129400806Y-79594434D02*
X129353187Y-80070624D01*
X129353187Y-80070624D02*
X129400806Y-80023005D01*
X129400806Y-80023005D02*
X129496044Y-79975386D01*
X129496044Y-79975386D02*
X129734139Y-79975386D01*
X129734139Y-79975386D02*
X129829377Y-80023005D01*
X129829377Y-80023005D02*
X129876996Y-80070624D01*
X129876996Y-80070624D02*
X129924615Y-80165862D01*
X129924615Y-80165862D02*
X129924615Y-80403957D01*
X129924615Y-80403957D02*
X129876996Y-80499195D01*
X129876996Y-80499195D02*
X129829377Y-80546815D01*
X129829377Y-80546815D02*
X129734139Y-80594434D01*
X129734139Y-80594434D02*
X129496044Y-80594434D01*
X129496044Y-80594434D02*
X129400806Y-80546815D01*
X129400806Y-80546815D02*
X129353187Y-80499195D01*
X109625158Y-75947834D02*
X109625158Y-76662119D01*
X109625158Y-76662119D02*
X109577539Y-76804976D01*
X109577539Y-76804976D02*
X109482301Y-76900215D01*
X109482301Y-76900215D02*
X109339444Y-76947834D01*
X109339444Y-76947834D02*
X109244206Y-76947834D01*
X110529920Y-76281167D02*
X110529920Y-76947834D01*
X110291825Y-75900215D02*
X110053730Y-76614500D01*
X110053730Y-76614500D02*
X110672777Y-76614500D01*
X134822711Y-71968281D02*
X134346520Y-72301614D01*
X134822711Y-72539709D02*
X133822711Y-72539709D01*
X133822711Y-72539709D02*
X133822711Y-72158757D01*
X133822711Y-72158757D02*
X133870330Y-72063519D01*
X133870330Y-72063519D02*
X133917949Y-72015900D01*
X133917949Y-72015900D02*
X134013187Y-71968281D01*
X134013187Y-71968281D02*
X134156044Y-71968281D01*
X134156044Y-71968281D02*
X134251282Y-72015900D01*
X134251282Y-72015900D02*
X134298901Y-72063519D01*
X134298901Y-72063519D02*
X134346520Y-72158757D01*
X134346520Y-72158757D02*
X134346520Y-72539709D01*
X134822711Y-71492090D02*
X134822711Y-71301614D01*
X134822711Y-71301614D02*
X134775092Y-71206376D01*
X134775092Y-71206376D02*
X134727472Y-71158757D01*
X134727472Y-71158757D02*
X134584615Y-71063519D01*
X134584615Y-71063519D02*
X134394139Y-71015900D01*
X134394139Y-71015900D02*
X134013187Y-71015900D01*
X134013187Y-71015900D02*
X133917949Y-71063519D01*
X133917949Y-71063519D02*
X133870330Y-71111138D01*
X133870330Y-71111138D02*
X133822711Y-71206376D01*
X133822711Y-71206376D02*
X133822711Y-71396852D01*
X133822711Y-71396852D02*
X133870330Y-71492090D01*
X133870330Y-71492090D02*
X133917949Y-71539709D01*
X133917949Y-71539709D02*
X134013187Y-71587328D01*
X134013187Y-71587328D02*
X134251282Y-71587328D01*
X134251282Y-71587328D02*
X134346520Y-71539709D01*
X134346520Y-71539709D02*
X134394139Y-71492090D01*
X134394139Y-71492090D02*
X134441758Y-71396852D01*
X134441758Y-71396852D02*
X134441758Y-71206376D01*
X134441758Y-71206376D02*
X134394139Y-71111138D01*
X134394139Y-71111138D02*
X134346520Y-71063519D01*
X134346520Y-71063519D02*
X134251282Y-71015900D01*
X46642025Y-34498795D02*
X46594406Y-34546415D01*
X46594406Y-34546415D02*
X46451549Y-34594034D01*
X46451549Y-34594034D02*
X46356311Y-34594034D01*
X46356311Y-34594034D02*
X46213454Y-34546415D01*
X46213454Y-34546415D02*
X46118216Y-34451176D01*
X46118216Y-34451176D02*
X46070597Y-34355938D01*
X46070597Y-34355938D02*
X46022978Y-34165462D01*
X46022978Y-34165462D02*
X46022978Y-34022605D01*
X46022978Y-34022605D02*
X46070597Y-33832129D01*
X46070597Y-33832129D02*
X46118216Y-33736891D01*
X46118216Y-33736891D02*
X46213454Y-33641653D01*
X46213454Y-33641653D02*
X46356311Y-33594034D01*
X46356311Y-33594034D02*
X46451549Y-33594034D01*
X46451549Y-33594034D02*
X46594406Y-33641653D01*
X46594406Y-33641653D02*
X46642025Y-33689272D01*
X47022978Y-33689272D02*
X47070597Y-33641653D01*
X47070597Y-33641653D02*
X47165835Y-33594034D01*
X47165835Y-33594034D02*
X47403930Y-33594034D01*
X47403930Y-33594034D02*
X47499168Y-33641653D01*
X47499168Y-33641653D02*
X47546787Y-33689272D01*
X47546787Y-33689272D02*
X47594406Y-33784510D01*
X47594406Y-33784510D02*
X47594406Y-33879748D01*
X47594406Y-33879748D02*
X47546787Y-34022605D01*
X47546787Y-34022605D02*
X46975359Y-34594034D01*
X46975359Y-34594034D02*
X47594406Y-34594034D01*
X41977853Y-86001434D02*
X41644520Y-85525243D01*
X41406425Y-86001434D02*
X41406425Y-85001434D01*
X41406425Y-85001434D02*
X41787377Y-85001434D01*
X41787377Y-85001434D02*
X41882615Y-85049053D01*
X41882615Y-85049053D02*
X41930234Y-85096672D01*
X41930234Y-85096672D02*
X41977853Y-85191910D01*
X41977853Y-85191910D02*
X41977853Y-85334767D01*
X41977853Y-85334767D02*
X41930234Y-85430005D01*
X41930234Y-85430005D02*
X41882615Y-85477624D01*
X41882615Y-85477624D02*
X41787377Y-85525243D01*
X41787377Y-85525243D02*
X41406425Y-85525243D01*
X42263568Y-85001434D02*
X42596901Y-86001434D01*
X42596901Y-86001434D02*
X42930234Y-85001434D01*
X43787377Y-86001434D02*
X43215949Y-86001434D01*
X43501663Y-86001434D02*
X43501663Y-85001434D01*
X43501663Y-85001434D02*
X43406425Y-85144291D01*
X43406425Y-85144291D02*
X43311187Y-85239529D01*
X43311187Y-85239529D02*
X43215949Y-85287148D01*
X109350303Y-102543472D02*
X109397923Y-102591091D01*
X109397923Y-102591091D02*
X109445542Y-102733948D01*
X109445542Y-102733948D02*
X109445542Y-102829186D01*
X109445542Y-102829186D02*
X109397923Y-102972043D01*
X109397923Y-102972043D02*
X109302684Y-103067281D01*
X109302684Y-103067281D02*
X109207446Y-103114900D01*
X109207446Y-103114900D02*
X109016970Y-103162519D01*
X109016970Y-103162519D02*
X108874113Y-103162519D01*
X108874113Y-103162519D02*
X108683637Y-103114900D01*
X108683637Y-103114900D02*
X108588399Y-103067281D01*
X108588399Y-103067281D02*
X108493161Y-102972043D01*
X108493161Y-102972043D02*
X108445542Y-102829186D01*
X108445542Y-102829186D02*
X108445542Y-102733948D01*
X108445542Y-102733948D02*
X108493161Y-102591091D01*
X108493161Y-102591091D02*
X108540780Y-102543472D01*
X109445542Y-101591091D02*
X109445542Y-102162519D01*
X109445542Y-101876805D02*
X108445542Y-101876805D01*
X108445542Y-101876805D02*
X108588399Y-101972043D01*
X108588399Y-101972043D02*
X108683637Y-102067281D01*
X108683637Y-102067281D02*
X108731256Y-102162519D01*
X108874113Y-101019662D02*
X108826494Y-101114900D01*
X108826494Y-101114900D02*
X108778875Y-101162519D01*
X108778875Y-101162519D02*
X108683637Y-101210138D01*
X108683637Y-101210138D02*
X108636018Y-101210138D01*
X108636018Y-101210138D02*
X108540780Y-101162519D01*
X108540780Y-101162519D02*
X108493161Y-101114900D01*
X108493161Y-101114900D02*
X108445542Y-101019662D01*
X108445542Y-101019662D02*
X108445542Y-100829186D01*
X108445542Y-100829186D02*
X108493161Y-100733948D01*
X108493161Y-100733948D02*
X108540780Y-100686329D01*
X108540780Y-100686329D02*
X108636018Y-100638710D01*
X108636018Y-100638710D02*
X108683637Y-100638710D01*
X108683637Y-100638710D02*
X108778875Y-100686329D01*
X108778875Y-100686329D02*
X108826494Y-100733948D01*
X108826494Y-100733948D02*
X108874113Y-100829186D01*
X108874113Y-100829186D02*
X108874113Y-101019662D01*
X108874113Y-101019662D02*
X108921732Y-101114900D01*
X108921732Y-101114900D02*
X108969351Y-101162519D01*
X108969351Y-101162519D02*
X109064589Y-101210138D01*
X109064589Y-101210138D02*
X109255065Y-101210138D01*
X109255065Y-101210138D02*
X109350303Y-101162519D01*
X109350303Y-101162519D02*
X109397923Y-101114900D01*
X109397923Y-101114900D02*
X109445542Y-101019662D01*
X109445542Y-101019662D02*
X109445542Y-100829186D01*
X109445542Y-100829186D02*
X109397923Y-100733948D01*
X109397923Y-100733948D02*
X109350303Y-100686329D01*
X109350303Y-100686329D02*
X109255065Y-100638710D01*
X109255065Y-100638710D02*
X109064589Y-100638710D01*
X109064589Y-100638710D02*
X108969351Y-100686329D01*
X108969351Y-100686329D02*
X108921732Y-100733948D01*
X108921732Y-100733948D02*
X108874113Y-100829186D01*
X101327911Y-70285472D02*
X100851720Y-70618805D01*
X101327911Y-70856900D02*
X100327911Y-70856900D01*
X100327911Y-70856900D02*
X100327911Y-70475948D01*
X100327911Y-70475948D02*
X100375530Y-70380710D01*
X100375530Y-70380710D02*
X100423149Y-70333091D01*
X100423149Y-70333091D02*
X100518387Y-70285472D01*
X100518387Y-70285472D02*
X100661244Y-70285472D01*
X100661244Y-70285472D02*
X100756482Y-70333091D01*
X100756482Y-70333091D02*
X100804101Y-70380710D01*
X100804101Y-70380710D02*
X100851720Y-70475948D01*
X100851720Y-70475948D02*
X100851720Y-70856900D01*
X101327911Y-69333091D02*
X101327911Y-69904519D01*
X101327911Y-69618805D02*
X100327911Y-69618805D01*
X100327911Y-69618805D02*
X100470768Y-69714043D01*
X100470768Y-69714043D02*
X100566006Y-69809281D01*
X100566006Y-69809281D02*
X100613625Y-69904519D01*
X100327911Y-68428329D02*
X100327911Y-68904519D01*
X100327911Y-68904519D02*
X100804101Y-68952138D01*
X100804101Y-68952138D02*
X100756482Y-68904519D01*
X100756482Y-68904519D02*
X100708863Y-68809281D01*
X100708863Y-68809281D02*
X100708863Y-68571186D01*
X100708863Y-68571186D02*
X100756482Y-68475948D01*
X100756482Y-68475948D02*
X100804101Y-68428329D01*
X100804101Y-68428329D02*
X100899339Y-68380710D01*
X100899339Y-68380710D02*
X101137434Y-68380710D01*
X101137434Y-68380710D02*
X101232672Y-68428329D01*
X101232672Y-68428329D02*
X101280292Y-68475948D01*
X101280292Y-68475948D02*
X101327911Y-68571186D01*
X101327911Y-68571186D02*
X101327911Y-68809281D01*
X101327911Y-68809281D02*
X101280292Y-68904519D01*
X101280292Y-68904519D02*
X101232672Y-68952138D01*
X148201468Y-99920434D02*
X148201468Y-100634719D01*
X148201468Y-100634719D02*
X148153849Y-100777576D01*
X148153849Y-100777576D02*
X148058611Y-100872815D01*
X148058611Y-100872815D02*
X147915754Y-100920434D01*
X147915754Y-100920434D02*
X147820516Y-100920434D01*
X149201468Y-100920434D02*
X148630040Y-100920434D01*
X148915754Y-100920434D02*
X148915754Y-99920434D01*
X148915754Y-99920434D02*
X148820516Y-100063291D01*
X148820516Y-100063291D02*
X148725278Y-100158529D01*
X148725278Y-100158529D02*
X148630040Y-100206148D01*
X150058611Y-100253767D02*
X150058611Y-100920434D01*
X149820516Y-99872815D02*
X149582421Y-100587100D01*
X149582421Y-100587100D02*
X150201468Y-100587100D01*
X175361187Y-25735434D02*
X175361187Y-24735434D01*
X175361187Y-25211624D02*
X175932615Y-25211624D01*
X175932615Y-25735434D02*
X175932615Y-24735434D01*
X176361187Y-24830672D02*
X176408806Y-24783053D01*
X176408806Y-24783053D02*
X176504044Y-24735434D01*
X176504044Y-24735434D02*
X176742139Y-24735434D01*
X176742139Y-24735434D02*
X176837377Y-24783053D01*
X176837377Y-24783053D02*
X176884996Y-24830672D01*
X176884996Y-24830672D02*
X176932615Y-24925910D01*
X176932615Y-24925910D02*
X176932615Y-25021148D01*
X176932615Y-25021148D02*
X176884996Y-25164005D01*
X176884996Y-25164005D02*
X176313568Y-25735434D01*
X176313568Y-25735434D02*
X176932615Y-25735434D01*
X101327911Y-91621472D02*
X100851720Y-91954805D01*
X101327911Y-92192900D02*
X100327911Y-92192900D01*
X100327911Y-92192900D02*
X100327911Y-91811948D01*
X100327911Y-91811948D02*
X100375530Y-91716710D01*
X100375530Y-91716710D02*
X100423149Y-91669091D01*
X100423149Y-91669091D02*
X100518387Y-91621472D01*
X100518387Y-91621472D02*
X100661244Y-91621472D01*
X100661244Y-91621472D02*
X100756482Y-91669091D01*
X100756482Y-91669091D02*
X100804101Y-91716710D01*
X100804101Y-91716710D02*
X100851720Y-91811948D01*
X100851720Y-91811948D02*
X100851720Y-92192900D01*
X101327911Y-90669091D02*
X101327911Y-91240519D01*
X101327911Y-90954805D02*
X100327911Y-90954805D01*
X100327911Y-90954805D02*
X100470768Y-91050043D01*
X100470768Y-91050043D02*
X100566006Y-91145281D01*
X100566006Y-91145281D02*
X100613625Y-91240519D01*
X100756482Y-90097662D02*
X100708863Y-90192900D01*
X100708863Y-90192900D02*
X100661244Y-90240519D01*
X100661244Y-90240519D02*
X100566006Y-90288138D01*
X100566006Y-90288138D02*
X100518387Y-90288138D01*
X100518387Y-90288138D02*
X100423149Y-90240519D01*
X100423149Y-90240519D02*
X100375530Y-90192900D01*
X100375530Y-90192900D02*
X100327911Y-90097662D01*
X100327911Y-90097662D02*
X100327911Y-89907186D01*
X100327911Y-89907186D02*
X100375530Y-89811948D01*
X100375530Y-89811948D02*
X100423149Y-89764329D01*
X100423149Y-89764329D02*
X100518387Y-89716710D01*
X100518387Y-89716710D02*
X100566006Y-89716710D01*
X100566006Y-89716710D02*
X100661244Y-89764329D01*
X100661244Y-89764329D02*
X100708863Y-89811948D01*
X100708863Y-89811948D02*
X100756482Y-89907186D01*
X100756482Y-89907186D02*
X100756482Y-90097662D01*
X100756482Y-90097662D02*
X100804101Y-90192900D01*
X100804101Y-90192900D02*
X100851720Y-90240519D01*
X100851720Y-90240519D02*
X100946958Y-90288138D01*
X100946958Y-90288138D02*
X101137434Y-90288138D01*
X101137434Y-90288138D02*
X101232672Y-90240519D01*
X101232672Y-90240519D02*
X101280292Y-90192900D01*
X101280292Y-90192900D02*
X101327911Y-90097662D01*
X101327911Y-90097662D02*
X101327911Y-89907186D01*
X101327911Y-89907186D02*
X101280292Y-89811948D01*
X101280292Y-89811948D02*
X101232672Y-89764329D01*
X101232672Y-89764329D02*
X101137434Y-89716710D01*
X101137434Y-89716710D02*
X100946958Y-89716710D01*
X100946958Y-89716710D02*
X100851720Y-89764329D01*
X100851720Y-89764329D02*
X100804101Y-89811948D01*
X100804101Y-89811948D02*
X100756482Y-89907186D01*
X95131911Y-70325972D02*
X94655720Y-70659305D01*
X95131911Y-70897400D02*
X94131911Y-70897400D01*
X94131911Y-70897400D02*
X94131911Y-70516448D01*
X94131911Y-70516448D02*
X94179530Y-70421210D01*
X94179530Y-70421210D02*
X94227149Y-70373591D01*
X94227149Y-70373591D02*
X94322387Y-70325972D01*
X94322387Y-70325972D02*
X94465244Y-70325972D01*
X94465244Y-70325972D02*
X94560482Y-70373591D01*
X94560482Y-70373591D02*
X94608101Y-70421210D01*
X94608101Y-70421210D02*
X94655720Y-70516448D01*
X94655720Y-70516448D02*
X94655720Y-70897400D01*
X95131911Y-69373591D02*
X95131911Y-69945019D01*
X95131911Y-69659305D02*
X94131911Y-69659305D01*
X94131911Y-69659305D02*
X94274768Y-69754543D01*
X94274768Y-69754543D02*
X94370006Y-69849781D01*
X94370006Y-69849781D02*
X94417625Y-69945019D01*
X94465244Y-68516448D02*
X95131911Y-68516448D01*
X94084292Y-68754543D02*
X94798577Y-68992638D01*
X94798577Y-68992638D02*
X94798577Y-68373591D01*
X35361187Y-25735434D02*
X35361187Y-24735434D01*
X35361187Y-25211624D02*
X35932615Y-25211624D01*
X35932615Y-25735434D02*
X35932615Y-24735434D01*
X36932615Y-25735434D02*
X36361187Y-25735434D01*
X36646901Y-25735434D02*
X36646901Y-24735434D01*
X36646901Y-24735434D02*
X36551663Y-24878291D01*
X36551663Y-24878291D02*
X36456425Y-24973529D01*
X36456425Y-24973529D02*
X36361187Y-25021148D01*
X77381287Y-98458234D02*
X77952715Y-98458234D01*
X77667001Y-99458234D02*
X77667001Y-98458234D01*
X78857477Y-99458234D02*
X78524144Y-98982043D01*
X78286049Y-99458234D02*
X78286049Y-98458234D01*
X78286049Y-98458234D02*
X78667001Y-98458234D01*
X78667001Y-98458234D02*
X78762239Y-98505853D01*
X78762239Y-98505853D02*
X78809858Y-98553472D01*
X78809858Y-98553472D02*
X78857477Y-98648710D01*
X78857477Y-98648710D02*
X78857477Y-98791567D01*
X78857477Y-98791567D02*
X78809858Y-98886805D01*
X78809858Y-98886805D02*
X78762239Y-98934424D01*
X78762239Y-98934424D02*
X78667001Y-98982043D01*
X78667001Y-98982043D02*
X78286049Y-98982043D01*
X79190811Y-98458234D02*
X79809858Y-98458234D01*
X79809858Y-98458234D02*
X79476525Y-98839186D01*
X79476525Y-98839186D02*
X79619382Y-98839186D01*
X79619382Y-98839186D02*
X79714620Y-98886805D01*
X79714620Y-98886805D02*
X79762239Y-98934424D01*
X79762239Y-98934424D02*
X79809858Y-99029662D01*
X79809858Y-99029662D02*
X79809858Y-99267757D01*
X79809858Y-99267757D02*
X79762239Y-99362995D01*
X79762239Y-99362995D02*
X79714620Y-99410615D01*
X79714620Y-99410615D02*
X79619382Y-99458234D01*
X79619382Y-99458234D02*
X79333668Y-99458234D01*
X79333668Y-99458234D02*
X79238430Y-99410615D01*
X79238430Y-99410615D02*
X79190811Y-99362995D01*
X139317658Y-100300434D02*
X139317658Y-101014719D01*
X139317658Y-101014719D02*
X139270039Y-101157576D01*
X139270039Y-101157576D02*
X139174801Y-101252815D01*
X139174801Y-101252815D02*
X139031944Y-101300434D01*
X139031944Y-101300434D02*
X138936706Y-101300434D01*
X139793849Y-101300434D02*
X139793849Y-100300434D01*
X139793849Y-100300434D02*
X140174801Y-100300434D01*
X140174801Y-100300434D02*
X140270039Y-100348053D01*
X140270039Y-100348053D02*
X140317658Y-100395672D01*
X140317658Y-100395672D02*
X140365277Y-100490910D01*
X140365277Y-100490910D02*
X140365277Y-100633767D01*
X140365277Y-100633767D02*
X140317658Y-100729005D01*
X140317658Y-100729005D02*
X140270039Y-100776624D01*
X140270039Y-100776624D02*
X140174801Y-100824243D01*
X140174801Y-100824243D02*
X139793849Y-100824243D01*
X141270039Y-100300434D02*
X140793849Y-100300434D01*
X140793849Y-100300434D02*
X140746230Y-100776624D01*
X140746230Y-100776624D02*
X140793849Y-100729005D01*
X140793849Y-100729005D02*
X140889087Y-100681386D01*
X140889087Y-100681386D02*
X141127182Y-100681386D01*
X141127182Y-100681386D02*
X141222420Y-100729005D01*
X141222420Y-100729005D02*
X141270039Y-100776624D01*
X141270039Y-100776624D02*
X141317658Y-100871862D01*
X141317658Y-100871862D02*
X141317658Y-101109957D01*
X141317658Y-101109957D02*
X141270039Y-101205195D01*
X141270039Y-101205195D02*
X141222420Y-101252815D01*
X141222420Y-101252815D02*
X141127182Y-101300434D01*
X141127182Y-101300434D02*
X140889087Y-101300434D01*
X140889087Y-101300434D02*
X140793849Y-101252815D01*
X140793849Y-101252815D02*
X140746230Y-101205195D01*
X141403968Y-71485034D02*
X141403968Y-72199319D01*
X141403968Y-72199319D02*
X141356349Y-72342176D01*
X141356349Y-72342176D02*
X141261111Y-72437415D01*
X141261111Y-72437415D02*
X141118254Y-72485034D01*
X141118254Y-72485034D02*
X141023016Y-72485034D01*
X142403968Y-72485034D02*
X141832540Y-72485034D01*
X142118254Y-72485034D02*
X142118254Y-71485034D01*
X142118254Y-71485034D02*
X142023016Y-71627891D01*
X142023016Y-71627891D02*
X141927778Y-71723129D01*
X141927778Y-71723129D02*
X141832540Y-71770748D01*
X143261111Y-71485034D02*
X143070635Y-71485034D01*
X143070635Y-71485034D02*
X142975397Y-71532653D01*
X142975397Y-71532653D02*
X142927778Y-71580272D01*
X142927778Y-71580272D02*
X142832540Y-71723129D01*
X142832540Y-71723129D02*
X142784921Y-71913605D01*
X142784921Y-71913605D02*
X142784921Y-72294557D01*
X142784921Y-72294557D02*
X142832540Y-72389795D01*
X142832540Y-72389795D02*
X142880159Y-72437415D01*
X142880159Y-72437415D02*
X142975397Y-72485034D01*
X142975397Y-72485034D02*
X143165873Y-72485034D01*
X143165873Y-72485034D02*
X143261111Y-72437415D01*
X143261111Y-72437415D02*
X143308730Y-72389795D01*
X143308730Y-72389795D02*
X143356349Y-72294557D01*
X143356349Y-72294557D02*
X143356349Y-72056462D01*
X143356349Y-72056462D02*
X143308730Y-71961224D01*
X143308730Y-71961224D02*
X143261111Y-71913605D01*
X143261111Y-71913605D02*
X143165873Y-71865986D01*
X143165873Y-71865986D02*
X142975397Y-71865986D01*
X142975397Y-71865986D02*
X142880159Y-71913605D01*
X142880159Y-71913605D02*
X142832540Y-71961224D01*
X142832540Y-71961224D02*
X142784921Y-72056462D01*
X119943968Y-97791834D02*
X119943968Y-98506119D01*
X119943968Y-98506119D02*
X119896349Y-98648976D01*
X119896349Y-98648976D02*
X119801111Y-98744215D01*
X119801111Y-98744215D02*
X119658254Y-98791834D01*
X119658254Y-98791834D02*
X119563016Y-98791834D01*
X120943968Y-98791834D02*
X120372540Y-98791834D01*
X120658254Y-98791834D02*
X120658254Y-97791834D01*
X120658254Y-97791834D02*
X120563016Y-97934691D01*
X120563016Y-97934691D02*
X120467778Y-98029929D01*
X120467778Y-98029929D02*
X120372540Y-98077548D01*
X121420159Y-98791834D02*
X121610635Y-98791834D01*
X121610635Y-98791834D02*
X121705873Y-98744215D01*
X121705873Y-98744215D02*
X121753492Y-98696595D01*
X121753492Y-98696595D02*
X121848730Y-98553738D01*
X121848730Y-98553738D02*
X121896349Y-98363262D01*
X121896349Y-98363262D02*
X121896349Y-97982310D01*
X121896349Y-97982310D02*
X121848730Y-97887072D01*
X121848730Y-97887072D02*
X121801111Y-97839453D01*
X121801111Y-97839453D02*
X121705873Y-97791834D01*
X121705873Y-97791834D02*
X121515397Y-97791834D01*
X121515397Y-97791834D02*
X121420159Y-97839453D01*
X121420159Y-97839453D02*
X121372540Y-97887072D01*
X121372540Y-97887072D02*
X121324921Y-97982310D01*
X121324921Y-97982310D02*
X121324921Y-98220405D01*
X121324921Y-98220405D02*
X121372540Y-98315643D01*
X121372540Y-98315643D02*
X121420159Y-98363262D01*
X121420159Y-98363262D02*
X121515397Y-98410881D01*
X121515397Y-98410881D02*
X121705873Y-98410881D01*
X121705873Y-98410881D02*
X121801111Y-98363262D01*
X121801111Y-98363262D02*
X121848730Y-98315643D01*
X121848730Y-98315643D02*
X121896349Y-98220405D01*
%TO.C,R8*%
D12*
X119888492Y-107615615D02*
X120658492Y-107615615D01*
X127968492Y-107615615D02*
X127198492Y-107615615D01*
X120658492Y-106245615D02*
X127198492Y-106245615D01*
X127198492Y-108985615D01*
X120658492Y-108985615D01*
X120658492Y-106245615D01*
%TO.C,J18*%
X127628492Y-101465615D02*
X129008492Y-101465615D01*
X127628492Y-102845615D02*
X127628492Y-101465615D01*
X127628492Y-104115615D02*
X127628492Y-104225615D01*
X127628492Y-104115615D02*
X130388492Y-104115615D01*
X127628492Y-104225615D02*
X130388492Y-104225615D01*
X130388492Y-104115615D02*
X130388492Y-104225615D01*
%TO.C,TR1*%
X68203192Y-59879315D02*
X69483192Y-59879315D01*
X68203192Y-61159315D02*
X68203192Y-59879315D01*
X68503192Y-60179315D02*
X87783192Y-60179315D01*
X87783192Y-77959315D01*
X68503192Y-77959315D01*
X68503192Y-60179315D01*
%TO.C,J21*%
X66073892Y-31320615D02*
X66073892Y-35320615D01*
X66363892Y-27610615D02*
X68643892Y-27610615D01*
X66363892Y-37580615D02*
X66363892Y-27610615D01*
X66363892Y-37580615D02*
X73743892Y-37580615D01*
X66363892Y-38580615D02*
X66363892Y-37580615D01*
X68643892Y-27610615D02*
X68643892Y-28010615D01*
X68643892Y-28010615D02*
X71343892Y-28010615D01*
X71343892Y-27610615D02*
X73743892Y-27610615D01*
X71343892Y-28010615D02*
X71343892Y-27610615D01*
X73743892Y-27610615D02*
X73743892Y-38580615D01*
X73743892Y-38580615D02*
X66363892Y-38580615D01*
%TO.C,U4*%
X144562592Y-81139615D02*
X144562592Y-91419615D01*
X144562592Y-91419615D02*
X149862592Y-91419615D01*
X146212592Y-81139615D02*
X144562592Y-81139615D01*
X149862592Y-81139615D02*
X148212592Y-81139615D01*
X149862592Y-91419615D02*
X149862592Y-81139615D01*
X148212592Y-81139615D02*
G75*
G02*
X146212592Y-81139615I-1000000J0D01*
G01*
%TO.C,J22*%
X106112800Y-26890200D02*
X106112800Y-29650200D01*
X111302800Y-26890200D02*
X106112800Y-26890200D01*
X111302800Y-26890200D02*
X111302800Y-29650200D01*
X111302800Y-29650200D02*
X106112800Y-29650200D01*
X112572800Y-26890200D02*
X113952800Y-26890200D01*
X113952800Y-26890200D02*
X113952800Y-28270200D01*
%TO.C,C19*%
X129266461Y-54362415D02*
X129816461Y-54362415D01*
X129541461Y-54087415D02*
X129541461Y-54637415D01*
X135208723Y-55977415D02*
G75*
G02*
X129468723Y-55977415I-2870000J0D01*
G01*
X129468723Y-55977415D02*
G75*
G02*
X135208723Y-55977415I2870000J0D01*
G01*
%TO.C,U2*%
X78386492Y-27352415D02*
X96826492Y-27352415D01*
X96826492Y-50312415D01*
X78386492Y-50312415D01*
X78386492Y-27352415D01*
%TO.C,R16*%
X104599092Y-65602615D02*
X104599092Y-66372615D01*
X104599092Y-73682615D02*
X104599092Y-72912615D01*
X103229092Y-66372615D02*
X105969092Y-66372615D01*
X105969092Y-72912615D01*
X103229092Y-72912615D01*
X103229092Y-66372615D01*
%TO.C,J13*%
X167740092Y-101465615D02*
X169120092Y-101465615D01*
X167740092Y-102845615D02*
X167740092Y-101465615D01*
X167740092Y-104115615D02*
X167740092Y-104225615D01*
X167740092Y-104115615D02*
X170500092Y-104115615D01*
X167740092Y-104225615D02*
X170500092Y-104225615D01*
X170500092Y-104115615D02*
X170500092Y-104225615D01*
%TO.C,J5*%
X97123092Y-79184615D02*
X98503092Y-79184615D01*
X97123092Y-80564615D02*
X97123092Y-79184615D01*
X97123092Y-81834615D02*
X97123092Y-81944615D01*
X97123092Y-81834615D02*
X99883092Y-81834615D01*
X97123092Y-81944615D02*
X99883092Y-81944615D01*
X99883092Y-81834615D02*
X99883092Y-81944615D01*
%TO.C,JP3*%
D10*
X91277092Y-121312615D02*
X91777092Y-120812615D01*
X91277092Y-122112615D02*
X91277092Y-121312615D01*
X91777092Y-120812615D02*
X95377092Y-120812615D01*
X91777092Y-122612615D02*
X91277092Y-122112615D01*
X95377092Y-120812615D02*
X95877092Y-121312615D01*
X95377092Y-122612615D02*
X91777092Y-122612615D01*
X95877092Y-121312615D02*
X95877092Y-122112615D01*
X95877092Y-122112615D02*
X95377092Y-122612615D01*
%TO.C,TR2*%
D12*
X68203192Y-79671365D02*
X69483192Y-79671365D01*
X68203192Y-80951365D02*
X68203192Y-79671365D01*
X68503192Y-79971365D02*
X87783192Y-79971365D01*
X87783192Y-97751365D01*
X68503192Y-97751365D01*
X68503192Y-79971365D01*
%TO.C,JP2*%
D10*
X91277092Y-101500615D02*
X91777092Y-101000615D01*
X91277092Y-102300615D02*
X91277092Y-101500615D01*
X91777092Y-101000615D02*
X95377092Y-101000615D01*
X91777092Y-102800615D02*
X91277092Y-102300615D01*
X95377092Y-101000615D02*
X95877092Y-101500615D01*
X95377092Y-102800615D02*
X91777092Y-102800615D01*
X95877092Y-101500615D02*
X95877092Y-102300615D01*
X95877092Y-102300615D02*
X95377092Y-102800615D01*
%TO.C,JP4*%
X157930092Y-102445615D02*
X158430092Y-101945615D01*
X157930092Y-103245615D02*
X157930092Y-102445615D01*
X158430092Y-101945615D02*
X162030092Y-101945615D01*
X158430092Y-103745615D02*
X157930092Y-103245615D01*
X162030092Y-101945615D02*
X162530092Y-102445615D01*
X162030092Y-103745615D02*
X158430092Y-103745615D01*
X162530092Y-102445615D02*
X162530092Y-103245615D01*
X162530092Y-103245615D02*
X162030092Y-103745615D01*
%TO.C,R11*%
D12*
X47315092Y-90266015D02*
X47315092Y-91036015D01*
X47315092Y-98346015D02*
X47315092Y-97576015D01*
X45945092Y-91036015D02*
X48685092Y-91036015D01*
X48685092Y-97576015D01*
X45945092Y-97576015D01*
X45945092Y-91036015D01*
%TO.C,R17*%
X92307092Y-86979115D02*
X92307092Y-87749115D01*
X92307092Y-95059115D02*
X92307092Y-94289115D01*
X90937092Y-87749115D02*
X93677092Y-87749115D01*
X93677092Y-94289115D01*
X90937092Y-94289115D01*
X90937092Y-87749115D01*
%TO.C,JP1*%
D10*
X91277092Y-80164615D02*
X91777092Y-79664615D01*
X91277092Y-80964615D02*
X91277092Y-80164615D01*
X91777092Y-79664615D02*
X95377092Y-79664615D01*
X91777092Y-81464615D02*
X91277092Y-80964615D01*
X95377092Y-79664615D02*
X95877092Y-80164615D01*
X95377092Y-81464615D02*
X91777092Y-81464615D01*
X95877092Y-80164615D02*
X95877092Y-80964615D01*
X95877092Y-80964615D02*
X95377092Y-81464615D01*
%TO.C,J15*%
D12*
X140873092Y-53403615D02*
X142253092Y-53403615D01*
X140873092Y-54783615D02*
X140873092Y-53403615D01*
X140873092Y-56053615D02*
X140873092Y-56163615D01*
X140873092Y-56053615D02*
X143633092Y-56053615D01*
X140873092Y-56163615D02*
X143633092Y-56163615D01*
X143633092Y-56053615D02*
X143633092Y-56163615D01*
%TO.C,J8*%
X147680992Y-119355615D02*
X147680992Y-111675615D01*
X147680992Y-121955615D02*
X147680992Y-120625615D01*
X149010992Y-121955615D02*
X147680992Y-121955615D01*
X150340992Y-111675615D02*
X147680992Y-111675615D01*
X150340992Y-119355615D02*
X147680992Y-119355615D01*
X150340992Y-119355615D02*
X150340992Y-111675615D01*
%TO.C,R22*%
X104599092Y-108274615D02*
X104599092Y-109044615D01*
X104599092Y-116354615D02*
X104599092Y-115584615D01*
X103229092Y-109044615D02*
X105969092Y-109044615D01*
X105969092Y-115584615D01*
X103229092Y-115584615D01*
X103229092Y-109044615D01*
%TO.C,U1*%
X36113092Y-35318115D02*
X61833092Y-35318115D01*
X36113092Y-76538115D02*
X36113092Y-35318115D01*
X45677092Y-76538115D02*
X36113092Y-76538115D01*
X61833092Y-35318115D02*
X61833092Y-76538115D01*
X61833092Y-76538115D02*
X46269092Y-76538115D01*
X45973092Y-76538115D02*
X46413092Y-77148115D01*
X45533092Y-77148115D01*
X45973092Y-76538115D01*
G36*
X46413092Y-77148115D02*
G01*
X45533092Y-77148115D01*
X45973092Y-76538115D01*
X46413092Y-77148115D01*
G37*
%TO.C,R13*%
X62315092Y-90139015D02*
X62315092Y-90909015D01*
X62315092Y-98219015D02*
X62315092Y-97449015D01*
X60945092Y-90909015D02*
X63685092Y-90909015D01*
X63685092Y-97449015D01*
X60945092Y-97449015D01*
X60945092Y-90909015D01*
%TO.C,J23*%
X109735000Y-52895615D02*
X111115000Y-52895615D01*
X109735000Y-54275615D02*
X109735000Y-52895615D01*
X109735000Y-55545615D02*
X109735000Y-55655615D01*
X109735000Y-55545615D02*
X112495000Y-55545615D01*
X109735000Y-55655615D02*
X112495000Y-55655615D01*
X112495000Y-55545615D02*
X112495000Y-55655615D01*
%TO.C,C15*%
X107416354Y-82200615D02*
X107416354Y-81650615D01*
X107691354Y-81925615D02*
X107141354Y-81925615D01*
X107489092Y-80310615D02*
G75*
G02*
X101749092Y-80310615I-2870000J0D01*
G01*
X101749092Y-80310615D02*
G75*
G02*
X107489092Y-80310615I2870000J0D01*
G01*
%TO.C,J6*%
X44437619Y-103132915D02*
X65177619Y-103132915D01*
X44437619Y-106752915D02*
X45677619Y-106752915D01*
X44437619Y-107752915D02*
X45677619Y-107752915D01*
X44437619Y-109052915D02*
X45677619Y-109052915D01*
X44437619Y-111172915D02*
X44437619Y-103132915D01*
X47257619Y-111172915D02*
X44437619Y-111172915D01*
X49437619Y-106752915D02*
X50745619Y-106752915D01*
X49437619Y-107752915D02*
X50745619Y-107752915D01*
X49437619Y-109052915D02*
X52014619Y-109052915D01*
X53100619Y-109052915D02*
X57014619Y-109052915D01*
X54369619Y-106752915D02*
X55745619Y-106752915D01*
X54369619Y-107752915D02*
X55745619Y-107752915D01*
X58100619Y-109052915D02*
X62014619Y-109052915D01*
X59369619Y-106752915D02*
X60745619Y-106752915D01*
X59369619Y-107752915D02*
X60745619Y-107752915D01*
X63100619Y-109052915D02*
X65177619Y-109052915D01*
X64369619Y-106752915D02*
X65177619Y-106752915D01*
X64369619Y-107752915D02*
X65177619Y-107752915D01*
X65177619Y-103132915D02*
X65177619Y-111172915D01*
X65177619Y-111172915D02*
X47857619Y-111172915D01*
X47557619Y-111172915D02*
X47997619Y-111782915D01*
X47117619Y-111782915D01*
X47557619Y-111172915D01*
G36*
X47997619Y-111782915D02*
G01*
X47117619Y-111782915D01*
X47557619Y-111172915D01*
X47997619Y-111782915D01*
G37*
%TO.C,R21*%
X98503092Y-108274615D02*
X98503092Y-109044615D01*
X98503092Y-116354615D02*
X98503092Y-115584615D01*
X97133092Y-109044615D02*
X99873092Y-109044615D01*
X99873092Y-115584615D01*
X97133092Y-115584615D01*
X97133092Y-109044615D01*
%TO.C,J3*%
X116746092Y-67991615D02*
X116746092Y-67881615D01*
X119506092Y-67881615D02*
X116746092Y-67881615D01*
X119506092Y-67991615D02*
X116746092Y-67991615D01*
X119506092Y-67991615D02*
X119506092Y-67881615D01*
X119506092Y-69261615D02*
X119506092Y-70641615D01*
X119506092Y-70641615D02*
X118126092Y-70641615D01*
%TO.C,R12*%
X54819092Y-90266015D02*
X54819092Y-91036015D01*
X54819092Y-98346015D02*
X54819092Y-97576015D01*
X53449092Y-91036015D02*
X56189092Y-91036015D01*
X56189092Y-97576015D01*
X53449092Y-97576015D01*
X53449092Y-91036015D01*
%TO.C,J2*%
X157041692Y-58153415D02*
X157041692Y-60913415D01*
X162231692Y-58153415D02*
X157041692Y-58153415D01*
X162231692Y-58153415D02*
X162231692Y-60913415D01*
X162231692Y-60913415D02*
X157041692Y-60913415D01*
X163501692Y-58153415D02*
X164881692Y-58153415D01*
X164881692Y-58153415D02*
X164881692Y-59533415D01*
%TO.C,J20*%
X105250000Y-49650000D02*
X105250000Y-48270000D01*
X106630000Y-49650000D02*
X105250000Y-49650000D01*
X107900000Y-46890000D02*
X115630000Y-46890000D01*
X107900000Y-49650000D02*
X107900000Y-46890000D01*
X107900000Y-49650000D02*
X115630000Y-49650000D01*
X115630000Y-49650000D02*
X115630000Y-46890000D01*
%TO.C,R10*%
X127840092Y-61437015D02*
X127840092Y-62207015D01*
X127840092Y-69517015D02*
X127840092Y-68747015D01*
X126470092Y-62207015D02*
X129210092Y-62207015D01*
X129210092Y-68747015D01*
X126470092Y-68747015D01*
X126470092Y-62207015D01*
%TO.C,J12*%
X97123092Y-120332615D02*
X98503092Y-120332615D01*
X97123092Y-121712615D02*
X97123092Y-120332615D01*
X97123092Y-122982615D02*
X97123092Y-123092615D01*
X97123092Y-122982615D02*
X99883092Y-122982615D01*
X97123092Y-123092615D02*
X99883092Y-123092615D01*
X99883092Y-122982615D02*
X99883092Y-123092615D01*
%TO.C,R7*%
X139890992Y-107615615D02*
X140660992Y-107615615D01*
X147970992Y-107615615D02*
X147200992Y-107615615D01*
X140660992Y-106245615D02*
X147200992Y-106245615D01*
X147200992Y-108985615D01*
X140660992Y-108985615D01*
X140660992Y-106245615D01*
%TO.C,U3*%
X162660092Y-81139615D02*
X162660092Y-91419615D01*
X162660092Y-91419615D02*
X167960092Y-91419615D01*
X164310092Y-81139615D02*
X162660092Y-81139615D01*
X167960092Y-81139615D02*
X166310092Y-81139615D01*
X167960092Y-91419615D02*
X167960092Y-81139615D01*
X166310092Y-81139615D02*
G75*
G02*
X164310092Y-81139615I-1000000J0D01*
G01*
%TO.C,F1*%
X36223092Y-90128615D02*
X36223092Y-94128615D01*
X36223092Y-94128615D02*
X37623092Y-94128615D01*
X36223092Y-105428615D02*
X36223092Y-109428615D01*
X36223092Y-105428615D02*
X37223092Y-105428615D01*
X36223092Y-109428615D02*
X37223092Y-109428615D01*
X36323092Y-94128615D02*
X36323092Y-105428615D01*
X37623092Y-90128615D02*
X36223092Y-90128615D01*
X40023092Y-90128615D02*
X41423092Y-90128615D01*
X41323092Y-94128615D02*
X41323092Y-105428615D01*
X41423092Y-94128615D02*
X40023092Y-94128615D01*
X41423092Y-94128615D02*
X41423092Y-90128615D01*
X41423092Y-105428615D02*
X40423092Y-105428615D01*
X41423092Y-105428615D02*
X41423092Y-109428615D01*
X41423092Y-109428615D02*
X40423092Y-109428615D01*
%TO.C,J11*%
X97123092Y-100520615D02*
X98503092Y-100520615D01*
X97123092Y-101900615D02*
X97123092Y-100520615D01*
X97123092Y-103170615D02*
X97123092Y-103280615D01*
X97123092Y-103170615D02*
X99883092Y-103170615D01*
X97123092Y-103280615D02*
X99883092Y-103280615D01*
X99883092Y-103170615D02*
X99883092Y-103280615D01*
%TO.C,J10*%
X121696092Y-67991615D02*
X121696092Y-67881615D01*
X124456092Y-67881615D02*
X121696092Y-67881615D01*
X124456092Y-67991615D02*
X121696092Y-67991615D01*
X124456092Y-67991615D02*
X124456092Y-67881615D01*
X124456092Y-69261615D02*
X124456092Y-70641615D01*
X124456092Y-70641615D02*
X123076092Y-70641615D01*
%TO.C,R6*%
X160000092Y-107615615D02*
X160770092Y-107615615D01*
X168080092Y-107615615D02*
X167310092Y-107615615D01*
X160770092Y-106245615D02*
X167310092Y-106245615D01*
X167310092Y-108985615D01*
X160770092Y-108985615D01*
X160770092Y-106245615D01*
%TO.C,C16*%
X160711661Y-52584415D02*
X161261661Y-52584415D01*
X160986661Y-52309415D02*
X160986661Y-52859415D01*
X166653923Y-54199415D02*
G75*
G02*
X160913923Y-54199415I-2870000J0D01*
G01*
X160913923Y-54199415D02*
G75*
G02*
X166653923Y-54199415I2870000J0D01*
G01*
%TO.C,A1*%
X116727092Y-26916615D02*
X116727092Y-49916615D01*
X116727092Y-49916615D02*
X169852092Y-49916615D01*
X165477092Y-34416615D02*
X165477092Y-42166615D01*
X165477092Y-42166615D02*
X169852092Y-42166615D01*
X169852092Y-26916615D02*
X116727092Y-26916615D01*
X169852092Y-34416615D02*
X165477092Y-34416615D01*
X169852092Y-34416615D02*
X169852092Y-26916615D01*
X169852092Y-42166615D02*
X170477092Y-42166615D01*
X169852092Y-49916615D02*
X169852092Y-42166615D01*
X170477092Y-34416615D02*
X169852092Y-34416615D01*
X170477092Y-42166615D02*
X170477092Y-34416615D01*
%TO.C,J17*%
X135923092Y-67881615D02*
X137303092Y-67881615D01*
X135923092Y-69261615D02*
X135923092Y-67881615D01*
X135923092Y-70531615D02*
X135923092Y-70641615D01*
X135923092Y-70531615D02*
X138683092Y-70531615D01*
X135923092Y-70641615D02*
X138683092Y-70641615D01*
X138683092Y-70531615D02*
X138683092Y-70641615D01*
%TO.C,C1*%
X57465354Y-31629215D02*
X57465354Y-31079215D01*
X57740354Y-31354215D02*
X57190354Y-31354215D01*
X57538092Y-29739215D02*
G75*
G02*
X51798092Y-29739215I-2870000J0D01*
G01*
X51798092Y-29739215D02*
G75*
G02*
X57538092Y-29739215I2870000J0D01*
G01*
%TO.C,R19*%
X104599092Y-86938615D02*
X104599092Y-87708615D01*
X104599092Y-95018615D02*
X104599092Y-94248615D01*
X103229092Y-87708615D02*
X105969092Y-87708615D01*
X105969092Y-94248615D01*
X103229092Y-94248615D01*
X103229092Y-87708615D01*
%TO.C,J1*%
X116746092Y-53005615D02*
X116746092Y-52895615D01*
X119506092Y-52895615D02*
X116746092Y-52895615D01*
X119506092Y-53005615D02*
X116746092Y-53005615D01*
X119506092Y-53005615D02*
X119506092Y-52895615D01*
X119506092Y-54275615D02*
X119506092Y-55655615D01*
X119506092Y-55655615D02*
X118126092Y-55655615D01*
%TO.C,JP6*%
D10*
X117818492Y-102445615D02*
X118318492Y-101945615D01*
X117818492Y-103245615D02*
X117818492Y-102445615D01*
X118318492Y-101945615D02*
X121918492Y-101945615D01*
X118318492Y-103745615D02*
X117818492Y-103245615D01*
X121918492Y-101945615D02*
X122418492Y-102445615D01*
X121918492Y-103745615D02*
X118318492Y-103745615D01*
X122418492Y-102445615D02*
X122418492Y-103245615D01*
X122418492Y-103245615D02*
X121918492Y-103745615D01*
%TO.C,J7*%
D12*
X167790092Y-119355615D02*
X167790092Y-111675615D01*
X167790092Y-121955615D02*
X167790092Y-120625615D01*
X169120092Y-121955615D02*
X167790092Y-121955615D01*
X170450092Y-111675615D02*
X167790092Y-111675615D01*
X170450092Y-119355615D02*
X167790092Y-119355615D01*
X170450092Y-119355615D02*
X170450092Y-111675615D01*
%TO.C,R20*%
X92307092Y-108315115D02*
X92307092Y-109085115D01*
X92307092Y-116395115D02*
X92307092Y-115625115D01*
X90937092Y-109085115D02*
X93677092Y-109085115D01*
X93677092Y-115625115D01*
X90937092Y-115625115D01*
X90937092Y-109085115D01*
%TO.C,J9*%
X127678492Y-119355615D02*
X127678492Y-111675615D01*
X127678492Y-121955615D02*
X127678492Y-120625615D01*
X129008492Y-121955615D02*
X127678492Y-121955615D01*
X130338492Y-111675615D02*
X127678492Y-111675615D01*
X130338492Y-119355615D02*
X127678492Y-119355615D01*
X130338492Y-119355615D02*
X130338492Y-111675615D01*
%TO.C,U5*%
X126465092Y-81139615D02*
X126465092Y-91419615D01*
X126465092Y-91419615D02*
X131765092Y-91419615D01*
X128115092Y-81139615D02*
X126465092Y-81139615D01*
X131765092Y-81139615D02*
X130115092Y-81139615D01*
X131765092Y-91419615D02*
X131765092Y-81139615D01*
X130115092Y-81139615D02*
G75*
G02*
X128115092Y-81139615I-1000000J0D01*
G01*
%TO.C,J4*%
X107791092Y-72512815D02*
X107791092Y-67322815D01*
X110551092Y-67322815D02*
X107791092Y-67322815D01*
X110551092Y-72512815D02*
X107791092Y-72512815D01*
X110551092Y-72512815D02*
X110551092Y-67322815D01*
X110551092Y-73782815D02*
X110551092Y-75162815D01*
X110551092Y-75162815D02*
X109171092Y-75162815D01*
%TO.C,R9*%
X132183492Y-61437015D02*
X132183492Y-62207015D01*
X132183492Y-69517015D02*
X132183492Y-68747015D01*
X130813492Y-62207015D02*
X133553492Y-62207015D01*
X133553492Y-68747015D01*
X130813492Y-68747015D01*
X130813492Y-62207015D01*
%TO.C,C2*%
X43568692Y-30141215D02*
X43568692Y-29337215D01*
X43608692Y-30372215D02*
X43608692Y-29106215D01*
X43648692Y-30540215D02*
X43648692Y-28938215D01*
X43688692Y-30678215D02*
X43688692Y-28800215D01*
X43728692Y-30797215D02*
X43728692Y-28681215D01*
X43768692Y-30904215D02*
X43768692Y-28574215D01*
X43808692Y-31000215D02*
X43808692Y-28478215D01*
X43848692Y-31089215D02*
X43848692Y-28389215D01*
X43888692Y-31171215D02*
X43888692Y-28307215D01*
X43928692Y-31248215D02*
X43928692Y-28230215D01*
X43968692Y-31320215D02*
X43968692Y-28158215D01*
X44008692Y-31388215D02*
X44008692Y-28090215D01*
X44048692Y-31453215D02*
X44048692Y-28025215D01*
X44088692Y-31514215D02*
X44088692Y-27964215D01*
X44128692Y-31573215D02*
X44128692Y-27905215D01*
X44168692Y-31629215D02*
X44168692Y-27849215D01*
X44208692Y-31682215D02*
X44208692Y-27796215D01*
X44248692Y-31734215D02*
X44248692Y-27744215D01*
X44288692Y-31783215D02*
X44288692Y-27695215D01*
X44328692Y-31830215D02*
X44328692Y-27648215D01*
X44368692Y-31876215D02*
X44368692Y-27602215D01*
X44408692Y-31920215D02*
X44408692Y-27558215D01*
X44448692Y-31962215D02*
X44448692Y-27516215D01*
X44488692Y-32003215D02*
X44488692Y-27475215D01*
X44528692Y-28699215D02*
X44528692Y-27435215D01*
X44528692Y-32043215D02*
X44528692Y-30779215D01*
X44568692Y-28699215D02*
X44568692Y-27397215D01*
X44568692Y-32081215D02*
X44568692Y-30779215D01*
X44608692Y-28699215D02*
X44608692Y-27360215D01*
X44608692Y-32118215D02*
X44608692Y-30779215D01*
X44648692Y-28699215D02*
X44648692Y-27324215D01*
X44648692Y-32154215D02*
X44648692Y-30779215D01*
X44688692Y-28699215D02*
X44688692Y-27289215D01*
X44688692Y-32189215D02*
X44688692Y-30779215D01*
X44728692Y-28699215D02*
X44728692Y-27256215D01*
X44728692Y-32222215D02*
X44728692Y-30779215D01*
X44768692Y-28699215D02*
X44768692Y-27223215D01*
X44768692Y-32255215D02*
X44768692Y-30779215D01*
X44808692Y-28699215D02*
X44808692Y-27192215D01*
X44808692Y-32286215D02*
X44808692Y-30779215D01*
X44848692Y-28699215D02*
X44848692Y-27162215D01*
X44848692Y-32316215D02*
X44848692Y-30779215D01*
X44888692Y-28699215D02*
X44888692Y-27132215D01*
X44888692Y-32346215D02*
X44888692Y-30779215D01*
X44928692Y-28699215D02*
X44928692Y-27103215D01*
X44928692Y-32375215D02*
X44928692Y-30779215D01*
X44968692Y-28699215D02*
X44968692Y-27076215D01*
X44968692Y-32402215D02*
X44968692Y-30779215D01*
X45008692Y-28699215D02*
X45008692Y-27049215D01*
X45008692Y-32429215D02*
X45008692Y-30779215D01*
X45048692Y-28699215D02*
X45048692Y-27023215D01*
X45048692Y-32455215D02*
X45048692Y-30779215D01*
X45088692Y-28699215D02*
X45088692Y-26998215D01*
X45088692Y-32480215D02*
X45088692Y-30779215D01*
X45128692Y-28699215D02*
X45128692Y-26974215D01*
X45128692Y-32504215D02*
X45128692Y-30779215D01*
X45168692Y-28699215D02*
X45168692Y-26950215D01*
X45168692Y-32528215D02*
X45168692Y-30779215D01*
X45208692Y-28699215D02*
X45208692Y-26927215D01*
X45208692Y-32551215D02*
X45208692Y-30779215D01*
X45248692Y-28699215D02*
X45248692Y-26905215D01*
X45248692Y-32573215D02*
X45248692Y-30779215D01*
X45288692Y-28699215D02*
X45288692Y-26884215D01*
X45288692Y-32594215D02*
X45288692Y-30779215D01*
X45328692Y-28699215D02*
X45328692Y-26863215D01*
X45328692Y-32615215D02*
X45328692Y-30779215D01*
X45368692Y-28699215D02*
X45368692Y-26843215D01*
X45368692Y-32635215D02*
X45368692Y-30779215D01*
X45408692Y-28699215D02*
X45408692Y-26824215D01*
X45408692Y-32654215D02*
X45408692Y-30779215D01*
X45448692Y-28699215D02*
X45448692Y-26805215D01*
X45448692Y-32673215D02*
X45448692Y-30779215D01*
X45488692Y-28699215D02*
X45488692Y-26787215D01*
X45488692Y-32691215D02*
X45488692Y-30779215D01*
X45528692Y-28699215D02*
X45528692Y-26770215D01*
X45528692Y-32708215D02*
X45528692Y-30779215D01*
X45568692Y-28699215D02*
X45568692Y-26753215D01*
X45568692Y-32725215D02*
X45568692Y-30779215D01*
X45608692Y-28699215D02*
X45608692Y-26737215D01*
X45608692Y-32741215D02*
X45608692Y-30779215D01*
X45648692Y-28699215D02*
X45648692Y-26722215D01*
X45648692Y-32756215D02*
X45648692Y-30779215D01*
X45688692Y-28699215D02*
X45688692Y-26707215D01*
X45688692Y-32771215D02*
X45688692Y-30779215D01*
X45728692Y-28699215D02*
X45728692Y-26692215D01*
X45728692Y-32786215D02*
X45728692Y-30779215D01*
X45768692Y-28699215D02*
X45768692Y-26679215D01*
X45768692Y-32799215D02*
X45768692Y-30779215D01*
X45808692Y-28699215D02*
X45808692Y-26666215D01*
X45808692Y-32812215D02*
X45808692Y-30779215D01*
X45848692Y-28699215D02*
X45848692Y-26653215D01*
X45848692Y-32825215D02*
X45848692Y-30779215D01*
X45888692Y-28699215D02*
X45888692Y-26641215D01*
X45888692Y-32837215D02*
X45888692Y-30779215D01*
X45928692Y-28699215D02*
X45928692Y-26630215D01*
X45928692Y-32848215D02*
X45928692Y-30779215D01*
X45968692Y-28699215D02*
X45968692Y-26619215D01*
X45968692Y-32859215D02*
X45968692Y-30779215D01*
X46008692Y-28699215D02*
X46008692Y-26608215D01*
X46008692Y-32870215D02*
X46008692Y-30779215D01*
X46048692Y-28699215D02*
X46048692Y-26599215D01*
X46048692Y-32879215D02*
X46048692Y-30779215D01*
X46088692Y-28699215D02*
X46088692Y-26589215D01*
X46088692Y-32889215D02*
X46088692Y-30779215D01*
X46128692Y-28699215D02*
X46128692Y-26580215D01*
X46128692Y-32898215D02*
X46128692Y-30779215D01*
X46168692Y-28699215D02*
X46168692Y-26572215D01*
X46168692Y-32906215D02*
X46168692Y-30779215D01*
X46208692Y-28699215D02*
X46208692Y-26565215D01*
X46208692Y-32913215D02*
X46208692Y-30779215D01*
X46248692Y-28699215D02*
X46248692Y-26557215D01*
X46248692Y-32921215D02*
X46248692Y-30779215D01*
X46288692Y-28699215D02*
X46288692Y-26551215D01*
X46288692Y-32927215D02*
X46288692Y-30779215D01*
X46328692Y-28699215D02*
X46328692Y-26544215D01*
X46328692Y-32934215D02*
X46328692Y-30779215D01*
X46368692Y-28699215D02*
X46368692Y-26539215D01*
X46368692Y-32939215D02*
X46368692Y-30779215D01*
X46408692Y-28699215D02*
X46408692Y-26534215D01*
X46408692Y-32944215D02*
X46408692Y-30779215D01*
X46448692Y-28699215D02*
X46448692Y-26529215D01*
X46448692Y-32949215D02*
X46448692Y-30779215D01*
X46488692Y-28699215D02*
X46488692Y-26525215D01*
X46488692Y-32953215D02*
X46488692Y-30779215D01*
X46528692Y-28699215D02*
X46528692Y-26521215D01*
X46528692Y-32957215D02*
X46528692Y-30779215D01*
X46568692Y-28699215D02*
X46568692Y-26518215D01*
X46568692Y-32960215D02*
X46568692Y-30779215D01*
X46608692Y-32963215D02*
X46608692Y-26515215D01*
X46648692Y-32965215D02*
X46648692Y-26513215D01*
X46688692Y-32967215D02*
X46688692Y-26511215D01*
X46728692Y-32968215D02*
X46728692Y-26510215D01*
X46768692Y-32969215D02*
X46768692Y-26509215D01*
X46808692Y-32969215D02*
X46808692Y-26509215D01*
X49993933Y-31893215D02*
X49993933Y-31263215D01*
X50308933Y-31578215D02*
X49678933Y-31578215D01*
X50078692Y-29739215D02*
G75*
G02*
X43538692Y-29739215I-3270000J0D01*
G01*
X43538692Y-29739215D02*
G75*
G02*
X50078692Y-29739215I3270000J0D01*
G01*
%TO.C,RV1*%
D10*
X36573092Y-80646615D02*
X36573092Y-84546615D01*
X36573092Y-80646615D02*
X48573092Y-80646615D01*
X36573092Y-84546615D02*
X48573092Y-84546615D01*
X48573092Y-80646615D02*
X48573092Y-84546615D01*
%TO.C,C18*%
D12*
X101379830Y-100285615D02*
X101929830Y-100285615D01*
X101654830Y-100010615D02*
X101654830Y-100560615D01*
X107322092Y-101900615D02*
G75*
G02*
X101582092Y-101900615I-2870000J0D01*
G01*
X101582092Y-101900615D02*
G75*
G02*
X107322092Y-101900615I2870000J0D01*
G01*
%TO.C,R15*%
X98503092Y-65602615D02*
X98503092Y-66372615D01*
X98503092Y-73682615D02*
X98503092Y-72912615D01*
X97133092Y-66372615D02*
X99873092Y-66372615D01*
X99873092Y-72912615D01*
X97133092Y-72912615D01*
X97133092Y-66372615D01*
%TO.C,J14*%
X147630992Y-101465615D02*
X149010992Y-101465615D01*
X147630992Y-102845615D02*
X147630992Y-101465615D01*
X147630992Y-104115615D02*
X147630992Y-104225615D01*
X147630992Y-104115615D02*
X150390992Y-104115615D01*
X147630992Y-104225615D02*
X150390992Y-104225615D01*
X150390992Y-104115615D02*
X150390992Y-104225615D01*
%TO.C,R18*%
X98503092Y-86938615D02*
X98503092Y-87708615D01*
X98503092Y-95018615D02*
X98503092Y-94248615D01*
X97133092Y-87708615D02*
X99873092Y-87708615D01*
X99873092Y-94248615D01*
X97133092Y-94248615D01*
X97133092Y-87708615D01*
%TO.C,R14*%
X92307092Y-65643115D02*
X92307092Y-66413115D01*
X92307092Y-73723115D02*
X92307092Y-72953115D01*
X90937092Y-66413115D02*
X93677092Y-66413115D01*
X93677092Y-72953115D01*
X90937092Y-72953115D01*
X90937092Y-66413115D01*
%TO.C,TR3*%
X68203192Y-99463415D02*
X69483192Y-99463415D01*
X68203192Y-100743415D02*
X68203192Y-99463415D01*
X68503192Y-99763415D02*
X87783192Y-99763415D01*
X87783192Y-117543415D01*
X68503192Y-117543415D01*
X68503192Y-99763415D01*
%TO.C,JP5*%
D10*
X137820992Y-102445615D02*
X138320992Y-101945615D01*
X137820992Y-103245615D02*
X137820992Y-102445615D01*
X138320992Y-101945615D02*
X141920992Y-101945615D01*
X138320992Y-103745615D02*
X137820992Y-103245615D01*
X141920992Y-101945615D02*
X142420992Y-102445615D01*
X141920992Y-103745615D02*
X138320992Y-103745615D01*
X142420992Y-102445615D02*
X142420992Y-103245615D01*
X142420992Y-103245615D02*
X141920992Y-103745615D01*
%TO.C,J16*%
D12*
X140873092Y-67881615D02*
X142253092Y-67881615D01*
X140873092Y-69261615D02*
X140873092Y-67881615D01*
X140873092Y-70531615D02*
X140873092Y-70641615D01*
X140873092Y-70531615D02*
X143633092Y-70531615D01*
X140873092Y-70641615D02*
X143633092Y-70641615D01*
X143633092Y-70531615D02*
X143633092Y-70641615D01*
%TO.C,J19*%
X119373492Y-94687015D02*
X119373492Y-89497015D01*
X122133492Y-89497015D02*
X119373492Y-89497015D01*
X122133492Y-94687015D02*
X119373492Y-94687015D01*
X122133492Y-94687015D02*
X122133492Y-89497015D01*
X122133492Y-95957015D02*
X122133492Y-97337015D01*
X122133492Y-97337015D02*
X120753492Y-97337015D01*
%TD*%
M02*
