M48
; DRILL file KiCad 10.0.2 date 2026-05-09T21:21:39
; FORMAT={-:-/ absolute / metric / decimal}
; #@! TF.CreationDate,2026-05-09T21:21:39-03:00
; #@! TF.GenerationSoftware,Kicad,Pcbnew,10.0.2
; #@! TF.FileFunction,Plated,1,2,PTH
FMAT,2
METRIC
; #@! TA.AperFunction,Plated,PTH,ViaDrill
T1C0.300
; #@! TA.AperFunction,Plated,PTH,ComponentDrill
T2C0.300
; #@! TA.AperFunction,Plated,PTH,ComponentDrill
T3C0.500
%
G90
G05
T1
X68.14Y-41.96
X92.307Y-60.6
X98.349Y-60.6
X110.033Y-33.553
X110.035Y-37.512
X110.695Y-107.442
X110.695Y-113.868
X112.573Y-33.553
X112.573Y-39.798
X113.083Y-74.989
X115.369Y-60.88
X115.369Y-63.42
X122.887Y-51.659
X125.402Y-59.61
X125.402Y-63.42
X130.054Y-74.968
X132.925Y-93.751
X132.925Y-101.6
X133.784Y-73.529
X133.784Y-78.939
X134.825Y-63.42
X135.333Y-51.659
X136.171Y-73.249
X136.197Y-75.51
X143.385Y-80.01
X144.747Y-51.659
X144.747Y-56.857
X144.747Y-60.88
X144.747Y-63.42
X147.423Y-56.857
X147.423Y-65.172
X147.423Y-75.51
X149.963Y-56.857
X149.963Y-65.172
X149.963Y-75.535
X152.552Y-54.199
X152.552Y-56.857
X152.552Y-65.172
X152.552Y-73.249
X152.552Y-75.535
X152.552Y-79.0
X152.603Y-93.243
X152.603Y-101.6
X154.907Y-56.857
X154.907Y-66.849
X157.177Y-54.199
X159.666Y-79.752
X162.408Y-74.625
X165.254Y-77.186
X169.115Y-79.752
X174.906Y-77.186
X176.989Y-74.625
T2
X38.823Y-81.897
X39.973Y-39.128
X45.559Y-29.739
X45.973Y-72.728
X46.323Y-83.297
X47.315Y-89.226
X47.315Y-99.386
X48.059Y-29.739
X51.973Y-72.728
X53.418Y-29.739
X54.819Y-89.226
X54.819Y-99.386
X55.918Y-29.739
X57.973Y-39.128
X62.315Y-89.099
X62.315Y-99.259
X73.143Y-62.719
X73.143Y-75.419
X73.143Y-82.511
X73.143Y-95.211
X73.143Y-102.303
X73.143Y-115.003
X79.986Y-29.942
X79.986Y-32.482
X79.986Y-35.022
X79.986Y-37.562
X79.986Y-40.102
X79.986Y-42.642
X79.986Y-45.182
X79.986Y-47.722
X83.143Y-62.719
X83.143Y-75.419
X83.143Y-82.511
X83.143Y-95.211
X83.143Y-102.303
X83.143Y-115.003
X92.307Y-64.603
X92.307Y-74.763
X92.307Y-80.565
X92.307Y-85.939
X92.307Y-96.099
X92.307Y-101.901
X92.307Y-107.275
X92.307Y-117.435
X92.307Y-121.713
X94.847Y-80.565
X94.847Y-101.901
X94.847Y-121.713
X95.226Y-29.942
X95.226Y-32.482
X95.226Y-35.022
X95.226Y-37.562
X95.226Y-40.102
X95.226Y-42.642
X95.226Y-45.182
X95.226Y-47.722
X98.503Y-64.563
X98.503Y-74.723
X98.503Y-80.565
X98.503Y-85.899
X98.503Y-96.059
X98.503Y-101.901
X98.503Y-107.235
X98.503Y-117.395
X98.503Y-121.713
X103.202Y-101.901
X103.369Y-80.311
X104.599Y-64.563
X104.599Y-74.723
X104.599Y-85.899
X104.599Y-96.059
X104.599Y-107.235
X104.599Y-117.395
X105.702Y-101.901
X105.869Y-80.311
X106.63Y-48.27
X107.493Y-28.27
X109.17Y-48.27
X109.171Y-68.703
X109.171Y-71.243
X109.171Y-73.783
X110.033Y-28.27
X111.115Y-54.276
X111.71Y-48.27
X112.573Y-28.27
X114.25Y-48.27
X118.126Y-54.276
X118.126Y-69.262
X118.848Y-102.846
X118.848Y-107.616
X119.347Y-30.797
X119.347Y-46.037
X120.753Y-90.877
X120.753Y-93.417
X120.753Y-95.957
X121.388Y-102.846
X121.887Y-30.797
X121.887Y-46.037
X123.076Y-69.262
X124.427Y-30.797
X124.427Y-46.037
X125.305Y-82.47
X125.305Y-85.01
X125.305Y-87.55
X125.305Y-90.09
X126.967Y-30.797
X126.967Y-46.037
X127.84Y-60.397
X127.84Y-70.557
X129.008Y-102.846
X129.008Y-107.616
X129.008Y-113.006
X129.008Y-115.546
X129.008Y-118.086
X129.008Y-120.626
X129.507Y-30.797
X129.507Y-46.037
X131.089Y-55.977
X132.047Y-30.797
X132.047Y-46.037
X132.183Y-60.397
X132.183Y-70.557
X132.925Y-82.47
X132.925Y-85.01
X132.925Y-87.55
X132.925Y-90.09
X133.589Y-55.977
X134.587Y-30.797
X134.587Y-46.037
X137.127Y-30.797
X137.127Y-46.037
X137.303Y-69.262
X138.851Y-102.846
X138.851Y-107.616
X139.667Y-30.797
X139.667Y-46.037
X141.391Y-102.846
X142.207Y-30.797
X142.207Y-46.037
X142.253Y-54.784
X142.253Y-69.262
X143.403Y-82.47
X143.403Y-85.01
X143.403Y-87.55
X143.403Y-90.09
X144.747Y-30.797
X144.747Y-46.037
X147.287Y-30.797
X147.287Y-46.037
X149.011Y-102.846
X149.011Y-107.616
X149.011Y-113.006
X149.011Y-115.546
X149.011Y-118.086
X149.011Y-120.626
X149.827Y-30.797
X149.827Y-46.037
X151.023Y-82.47
X151.023Y-85.01
X151.023Y-87.55
X151.023Y-90.09
X152.367Y-30.797
X152.367Y-46.037
X154.907Y-30.797
X154.907Y-46.037
X157.447Y-30.797
X157.447Y-46.037
X158.422Y-59.533
X158.96Y-102.846
X158.96Y-107.616
X159.987Y-30.797
X159.987Y-46.037
X160.962Y-59.533
X161.5Y-82.47
X161.5Y-85.01
X161.5Y-87.55
X161.5Y-90.09
X161.5Y-102.846
X162.527Y-30.797
X162.527Y-46.037
X162.534Y-54.199
X163.502Y-59.533
X165.034Y-54.199
X165.067Y-30.797
X165.067Y-46.037
X167.607Y-30.797
X167.607Y-46.037
X169.12Y-82.47
X169.12Y-85.01
X169.12Y-87.55
X169.12Y-90.09
X169.12Y-102.846
X169.12Y-107.616
X169.12Y-113.006
X169.12Y-115.546
X169.12Y-118.086
X169.12Y-120.626
T3
X38.823Y-89.529
X38.823Y-94.729
X38.823Y-104.829
X38.823Y-110.029
X47.558Y-107.253
X52.558Y-107.253
X57.558Y-107.253
X62.558Y-107.253
X68.074Y-33.321
X72.034Y-33.321
M30
