%TF.GenerationSoftware,KiCad,Pcbnew,10.0.2*%
%TF.CreationDate,2026-05-09T21:21:34-03:00*%
%TF.ProjectId,kicad-pps,6b696361-642d-4707-9073-2e6b69636164,rev?*%
%TF.SameCoordinates,Original*%
%TF.FileFunction,Other,User*%
%FSLAX46Y46*%
G04 Gerber Fmt 4.6, Leading zero omitted, Abs format (unit mm)*
G04 Created by KiCad (PCBNEW 10.0.2) date 2026-05-09 21:21:34*
%MOMM*%
%LPD*%
G01*
G04 APERTURE LIST*
%ADD10C,0.050000*%
G04 APERTURE END LIST*
%TO.C,R8*%
D10*
X117798492Y-106115615D02*
X130058492Y-106115615D01*
X130058492Y-109115615D01*
X117798492Y-109115615D01*
X117798492Y-106115615D01*
%TO.C,J18*%
X127238492Y-101075615D02*
X130778492Y-101075615D01*
X130778492Y-104615615D01*
X127238492Y-104615615D01*
X127238492Y-101075615D01*
%TO.C,TR1*%
X68393192Y-60069315D02*
X87893192Y-60069315D01*
X87893192Y-78069315D01*
X68393192Y-78069315D01*
X68393192Y-60069315D01*
%TO.C,J21*%
X65973892Y-27220615D02*
X74133892Y-27220615D01*
X74133892Y-38970615D01*
X65973892Y-38970615D01*
X65973892Y-27220615D01*
%TO.C,U4*%
X142342592Y-80949615D02*
X152072592Y-80949615D01*
X152072592Y-91609615D01*
X142342592Y-91609615D01*
X142342592Y-80949615D01*
%TO.C,H4*%
X179573092Y-119430615D02*
G75*
G02*
X172673092Y-119430615I-3450000J0D01*
G01*
X172673092Y-119430615D02*
G75*
G02*
X179573092Y-119430615I3450000J0D01*
G01*
%TO.C,J22*%
X105722800Y-26500200D02*
X114342800Y-26500200D01*
X114342800Y-30040200D01*
X105722800Y-30040200D01*
X105722800Y-26500200D01*
%TO.C,C19*%
X135338723Y-55977415D02*
G75*
G02*
X129338723Y-55977415I-3000000J0D01*
G01*
X129338723Y-55977415D02*
G75*
G02*
X135338723Y-55977415I3000000J0D01*
G01*
%TO.C,U2*%
X77886492Y-26852415D02*
X97326492Y-26852415D01*
X97326492Y-50812415D01*
X77886492Y-50812415D01*
X77886492Y-26852415D01*
%TO.C,R16*%
X103099092Y-63512615D02*
X106099092Y-63512615D01*
X106099092Y-75772615D01*
X103099092Y-75772615D01*
X103099092Y-63512615D01*
%TO.C,J13*%
X167350092Y-101075615D02*
X170890092Y-101075615D01*
X170890092Y-104615615D01*
X167350092Y-104615615D01*
X167350092Y-101075615D01*
%TO.C,J5*%
X96733092Y-78794615D02*
X100273092Y-78794615D01*
X100273092Y-82334615D01*
X96733092Y-82334615D01*
X96733092Y-78794615D01*
%TO.C,H3*%
X39573092Y-119430615D02*
G75*
G02*
X32673092Y-119430615I-3450000J0D01*
G01*
X32673092Y-119430615D02*
G75*
G02*
X39573092Y-119430615I3450000J0D01*
G01*
%TO.C,JP3*%
X91007092Y-121212615D02*
X91007092Y-122212615D01*
X91007092Y-122212615D02*
X91657092Y-122862615D01*
X91657092Y-120562615D02*
X91007092Y-121212615D01*
X91657092Y-122862615D02*
X95457092Y-122862615D01*
X95457092Y-120562615D02*
X91657092Y-120562615D01*
X95457092Y-122862615D02*
X96107092Y-122212615D01*
X96107092Y-121212615D02*
X95457092Y-120562615D01*
X96107092Y-122212615D02*
X96107092Y-121212615D01*
%TO.C,TR2*%
X68393192Y-79861365D02*
X87893192Y-79861365D01*
X87893192Y-97861365D01*
X68393192Y-97861365D01*
X68393192Y-79861365D01*
%TO.C,JP2*%
X91007092Y-101400615D02*
X91007092Y-102400615D01*
X91007092Y-102400615D02*
X91657092Y-103050615D01*
X91657092Y-100750615D02*
X91007092Y-101400615D01*
X91657092Y-103050615D02*
X95457092Y-103050615D01*
X95457092Y-100750615D02*
X91657092Y-100750615D01*
X95457092Y-103050615D02*
X96107092Y-102400615D01*
X96107092Y-101400615D02*
X95457092Y-100750615D01*
X96107092Y-102400615D02*
X96107092Y-101400615D01*
%TO.C,JP4*%
X157660092Y-102345615D02*
X157660092Y-103345615D01*
X157660092Y-103345615D02*
X158310092Y-103995615D01*
X158310092Y-101695615D02*
X157660092Y-102345615D01*
X158310092Y-103995615D02*
X162110092Y-103995615D01*
X162110092Y-101695615D02*
X158310092Y-101695615D01*
X162110092Y-103995615D02*
X162760092Y-103345615D01*
X162760092Y-102345615D02*
X162110092Y-101695615D01*
X162760092Y-103345615D02*
X162760092Y-102345615D01*
%TO.C,R11*%
X45815092Y-88176015D02*
X48815092Y-88176015D01*
X48815092Y-100436015D01*
X45815092Y-100436015D01*
X45815092Y-88176015D01*
%TO.C,R17*%
X90807092Y-84889115D02*
X93807092Y-84889115D01*
X93807092Y-97149115D01*
X90807092Y-97149115D01*
X90807092Y-84889115D01*
%TO.C,JP1*%
X91007092Y-80064615D02*
X91007092Y-81064615D01*
X91007092Y-81064615D02*
X91657092Y-81714615D01*
X91657092Y-79414615D02*
X91007092Y-80064615D01*
X91657092Y-81714615D02*
X95457092Y-81714615D01*
X95457092Y-79414615D02*
X91657092Y-79414615D01*
X95457092Y-81714615D02*
X96107092Y-81064615D01*
X96107092Y-80064615D02*
X95457092Y-79414615D01*
X96107092Y-81064615D02*
X96107092Y-80064615D01*
%TO.C,J15*%
X140483092Y-53013615D02*
X144023092Y-53013615D01*
X144023092Y-56553615D01*
X140483092Y-56553615D01*
X140483092Y-53013615D01*
%TO.C,J8*%
X147240992Y-111235615D02*
X150780992Y-111235615D01*
X147240992Y-122395615D02*
X147240992Y-111235615D01*
X150780992Y-111235615D02*
X150780992Y-122395615D01*
X150780992Y-122395615D02*
X147240992Y-122395615D01*
%TO.C,R22*%
X103099092Y-106184615D02*
X106099092Y-106184615D01*
X106099092Y-118444615D01*
X103099092Y-118444615D01*
X103099092Y-106184615D01*
%TO.C,U1*%
X35973092Y-35178115D02*
X61973092Y-35178115D01*
X61973092Y-76678115D01*
X35973092Y-76678115D01*
X35973092Y-35178115D01*
%TO.C,R13*%
X60815092Y-88049015D02*
X63815092Y-88049015D01*
X63815092Y-100309015D01*
X60815092Y-100309015D01*
X60815092Y-88049015D01*
%TO.C,J23*%
X109345000Y-52505615D02*
X112885000Y-52505615D01*
X112885000Y-56045615D01*
X109345000Y-56045615D01*
X109345000Y-52505615D01*
%TO.C,C15*%
X107619092Y-80310615D02*
G75*
G02*
X101619092Y-80310615I-3000000J0D01*
G01*
X101619092Y-80310615D02*
G75*
G02*
X107619092Y-80310615I3000000J0D01*
G01*
%TO.C,J6*%
X44057619Y-102752915D02*
X65557619Y-102752915D01*
X65557619Y-111562915D01*
X44057619Y-111562915D01*
X44057619Y-102752915D01*
%TO.C,R21*%
X97003092Y-106184615D02*
X100003092Y-106184615D01*
X100003092Y-118444615D01*
X97003092Y-118444615D01*
X97003092Y-106184615D01*
%TO.C,J3*%
X116356092Y-67491615D02*
X119896092Y-67491615D01*
X119896092Y-71031615D01*
X116356092Y-71031615D01*
X116356092Y-67491615D01*
%TO.C,R12*%
X53319092Y-88176015D02*
X56319092Y-88176015D01*
X56319092Y-100436015D01*
X53319092Y-100436015D01*
X53319092Y-88176015D01*
%TO.C,J2*%
X156651692Y-57763415D02*
X165271692Y-57763415D01*
X165271692Y-61303415D01*
X156651692Y-61303415D01*
X156651692Y-57763415D01*
%TO.C,J20*%
X104860000Y-46500000D02*
X116020000Y-46500000D01*
X116020000Y-50040000D01*
X104860000Y-50040000D01*
X104860000Y-46500000D01*
%TO.C,R10*%
X126340092Y-59347015D02*
X129340092Y-59347015D01*
X129340092Y-71607015D01*
X126340092Y-71607015D01*
X126340092Y-59347015D01*
%TO.C,J12*%
X96733092Y-119942615D02*
X100273092Y-119942615D01*
X100273092Y-123482615D01*
X96733092Y-123482615D01*
X96733092Y-119942615D01*
%TO.C,R7*%
X137800992Y-106115615D02*
X150060992Y-106115615D01*
X150060992Y-109115615D01*
X137800992Y-109115615D01*
X137800992Y-106115615D01*
%TO.C,U3*%
X160440092Y-80949615D02*
X170170092Y-80949615D01*
X170170092Y-91609615D01*
X160440092Y-91609615D01*
X160440092Y-80949615D01*
%TO.C,F1*%
X35973092Y-111428615D02*
X35973092Y-88128615D01*
X35973092Y-111428615D02*
X41673092Y-111428615D01*
X41673092Y-88128615D02*
X35973092Y-88128615D01*
X41673092Y-88128615D02*
X41673092Y-111428615D01*
%TO.C,J11*%
X96733092Y-100130615D02*
X100273092Y-100130615D01*
X100273092Y-103670615D01*
X96733092Y-103670615D01*
X96733092Y-100130615D01*
%TO.C,J10*%
X121306092Y-67491615D02*
X124846092Y-67491615D01*
X124846092Y-71031615D01*
X121306092Y-71031615D01*
X121306092Y-67491615D01*
%TO.C,R6*%
X157910092Y-106115615D02*
X170170092Y-106115615D01*
X170170092Y-109115615D01*
X157910092Y-109115615D01*
X157910092Y-106115615D01*
%TO.C,C16*%
X166783923Y-54199415D02*
G75*
G02*
X160783923Y-54199415I-3000000J0D01*
G01*
X160783923Y-54199415D02*
G75*
G02*
X166783923Y-54199415I3000000J0D01*
G01*
%TO.C,A1*%
X116577092Y-26716615D02*
X170077092Y-26716615D01*
X170077092Y-50116615D01*
X116577092Y-50116615D01*
X116577092Y-26716615D01*
%TO.C,J17*%
X135533092Y-67491615D02*
X139073092Y-67491615D01*
X139073092Y-71031615D01*
X135533092Y-71031615D01*
X135533092Y-67491615D01*
%TO.C,C1*%
X57668092Y-29739215D02*
G75*
G02*
X51668092Y-29739215I-3000000J0D01*
G01*
X51668092Y-29739215D02*
G75*
G02*
X57668092Y-29739215I3000000J0D01*
G01*
%TO.C,R19*%
X103099092Y-84848615D02*
X106099092Y-84848615D01*
X106099092Y-97108615D01*
X103099092Y-97108615D01*
X103099092Y-84848615D01*
%TO.C,J1*%
X116356092Y-52505615D02*
X119896092Y-52505615D01*
X119896092Y-56045615D01*
X116356092Y-56045615D01*
X116356092Y-52505615D01*
%TO.C,JP6*%
X117548492Y-102345615D02*
X117548492Y-103345615D01*
X117548492Y-103345615D02*
X118198492Y-103995615D01*
X118198492Y-101695615D02*
X117548492Y-102345615D01*
X118198492Y-103995615D02*
X121998492Y-103995615D01*
X121998492Y-101695615D02*
X118198492Y-101695615D01*
X121998492Y-103995615D02*
X122648492Y-103345615D01*
X122648492Y-102345615D02*
X121998492Y-101695615D01*
X122648492Y-103345615D02*
X122648492Y-102345615D01*
%TO.C,J7*%
X167350092Y-111235615D02*
X170890092Y-111235615D01*
X167350092Y-122395615D02*
X167350092Y-111235615D01*
X170890092Y-111235615D02*
X170890092Y-122395615D01*
X170890092Y-122395615D02*
X167350092Y-122395615D01*
%TO.C,R20*%
X90807092Y-106225115D02*
X93807092Y-106225115D01*
X93807092Y-118485115D01*
X90807092Y-118485115D01*
X90807092Y-106225115D01*
%TO.C,J9*%
X127238492Y-111235615D02*
X130778492Y-111235615D01*
X127238492Y-122395615D02*
X127238492Y-111235615D01*
X130778492Y-111235615D02*
X130778492Y-122395615D01*
X130778492Y-122395615D02*
X127238492Y-122395615D01*
%TO.C,U5*%
X124245092Y-80949615D02*
X133975092Y-80949615D01*
X133975092Y-91609615D01*
X124245092Y-91609615D01*
X124245092Y-80949615D01*
%TO.C,J4*%
X107401092Y-66932815D02*
X110941092Y-66932815D01*
X110941092Y-75552815D01*
X107401092Y-75552815D01*
X107401092Y-66932815D01*
%TO.C,R9*%
X130683492Y-59347015D02*
X133683492Y-59347015D01*
X133683492Y-71607015D01*
X130683492Y-71607015D01*
X130683492Y-59347015D01*
%TO.C,C2*%
X50208692Y-29739215D02*
G75*
G02*
X43408692Y-29739215I-3400000J0D01*
G01*
X43408692Y-29739215D02*
G75*
G02*
X50208692Y-29739215I3400000J0D01*
G01*
%TO.C,RV1*%
X36323092Y-80396615D02*
X36323092Y-84796615D01*
X36323092Y-80396615D02*
X48823092Y-80396615D01*
X36323092Y-84796615D02*
X48823092Y-84796615D01*
X48823092Y-80396615D02*
X48823092Y-84796615D01*
%TO.C,C18*%
X107452092Y-101900615D02*
G75*
G02*
X101452092Y-101900615I-3000000J0D01*
G01*
X101452092Y-101900615D02*
G75*
G02*
X107452092Y-101900615I3000000J0D01*
G01*
%TO.C,R15*%
X97003092Y-63512615D02*
X100003092Y-63512615D01*
X100003092Y-75772615D01*
X97003092Y-75772615D01*
X97003092Y-63512615D01*
%TO.C,J14*%
X147240992Y-101075615D02*
X150780992Y-101075615D01*
X150780992Y-104615615D01*
X147240992Y-104615615D01*
X147240992Y-101075615D01*
%TO.C,H2*%
X179573092Y-29430615D02*
G75*
G02*
X172673092Y-29430615I-3450000J0D01*
G01*
X172673092Y-29430615D02*
G75*
G02*
X179573092Y-29430615I3450000J0D01*
G01*
%TO.C,R18*%
X97003092Y-84848615D02*
X100003092Y-84848615D01*
X100003092Y-97108615D01*
X97003092Y-97108615D01*
X97003092Y-84848615D01*
%TO.C,R14*%
X90807092Y-63553115D02*
X93807092Y-63553115D01*
X93807092Y-75813115D01*
X90807092Y-75813115D01*
X90807092Y-63553115D01*
%TO.C,H1*%
X39573092Y-29430615D02*
G75*
G02*
X32673092Y-29430615I-3450000J0D01*
G01*
X32673092Y-29430615D02*
G75*
G02*
X39573092Y-29430615I3450000J0D01*
G01*
%TO.C,TR3*%
X68393192Y-99653415D02*
X87893192Y-99653415D01*
X87893192Y-117653415D01*
X68393192Y-117653415D01*
X68393192Y-99653415D01*
%TO.C,JP5*%
X137550992Y-102345615D02*
X137550992Y-103345615D01*
X137550992Y-103345615D02*
X138200992Y-103995615D01*
X138200992Y-101695615D02*
X137550992Y-102345615D01*
X138200992Y-103995615D02*
X142000992Y-103995615D01*
X142000992Y-101695615D02*
X138200992Y-101695615D01*
X142000992Y-103995615D02*
X142650992Y-103345615D01*
X142650992Y-102345615D02*
X142000992Y-101695615D01*
X142650992Y-103345615D02*
X142650992Y-102345615D01*
%TO.C,J16*%
X140483092Y-67491615D02*
X144023092Y-67491615D01*
X144023092Y-71031615D01*
X140483092Y-71031615D01*
X140483092Y-67491615D01*
%TO.C,J19*%
X118983492Y-89107015D02*
X122523492Y-89107015D01*
X122523492Y-97727015D01*
X118983492Y-97727015D01*
X118983492Y-89107015D01*
%TD*%
M02*
