%TF.GenerationSoftware,KiCad,Pcbnew,10.0.2*%
%TF.CreationDate,2026-05-09T21:21:34-03:00*%
%TF.ProjectId,kicad-pps,6b696361-642d-4707-9073-2e6b69636164,rev?*%
%TF.SameCoordinates,Original*%
%TF.FileFunction,Other,User*%
%FSLAX46Y46*%
G04 Gerber Fmt 4.6, Leading zero omitted, Abs format (unit mm)*
G04 Created by KiCad (PCBNEW 10.0.2) date 2026-05-09 21:21:34*
%MOMM*%
%LPD*%
G01*
G04 APERTURE LIST*
%ADD10C,0.050000*%
G04 APERTURE END LIST*
%TO.C,U6*%
D10*
X136078092Y-57789615D02*
X136078092Y-66509615D01*
X136078092Y-66509615D02*
X137578092Y-66509615D01*
X137578092Y-57569615D02*
X137578092Y-57789615D01*
X137578092Y-57789615D02*
X136078092Y-57789615D01*
X137578092Y-66509615D02*
X137578092Y-66729615D01*
X137578092Y-66729615D02*
X141978092Y-66729615D01*
X141978092Y-57569615D02*
X137578092Y-57569615D01*
X141978092Y-57789615D02*
X141978092Y-57569615D01*
X141978092Y-66509615D02*
X143478092Y-66509615D01*
X141978092Y-66729615D02*
X141978092Y-66509615D01*
X143478092Y-57789615D02*
X141978092Y-57789615D01*
X143478092Y-66509615D02*
X143478092Y-57789615D01*
%TO.C,U7*%
X116901092Y-57789615D02*
X116901092Y-66509615D01*
X116901092Y-66509615D02*
X118401092Y-66509615D01*
X118401092Y-57569615D02*
X118401092Y-57789615D01*
X118401092Y-57789615D02*
X116901092Y-57789615D01*
X118401092Y-66509615D02*
X118401092Y-66729615D01*
X118401092Y-66729615D02*
X122801092Y-66729615D01*
X122801092Y-57569615D02*
X118401092Y-57569615D01*
X122801092Y-57789615D02*
X122801092Y-57569615D01*
X122801092Y-66509615D02*
X124301092Y-66509615D01*
X122801092Y-66729615D02*
X122801092Y-66509615D01*
X124301092Y-57789615D02*
X122801092Y-57789615D01*
X124301092Y-66509615D02*
X124301092Y-57789615D01*
%TD*%
M02*
