%TF.GenerationSoftware,KiCad,Pcbnew,10.0.2*%
%TF.CreationDate,2026-05-09T21:21:34-03:00*%
%TF.ProjectId,kicad-pps,6b696361-642d-4707-9073-2e6b69636164,rev?*%
%TF.SameCoordinates,Original*%
%TF.FileFunction,Soldermask,Top*%
%TF.FilePolarity,Negative*%
%FSLAX46Y46*%
G04 Gerber Fmt 4.6, Leading zero omitted, Abs format (unit mm)*
G04 Created by KiCad (PCBNEW 10.0.2) date 2026-05-09 21:21:34*
%MOMM*%
%LPD*%
G01*
G04 APERTURE LIST*
G04 Aperture macros list*
%AMRoundRect*
0 Rectangle with rounded corners*
0 $1 Rounding radius*
0 $2 $3 $4 $5 $6 $7 $8 $9 X,Y pos of 4 corners*
0 Add a 4 corners polygon primitive as box body*
4,1,4,$2,$3,$4,$5,$6,$7,$8,$9,$2,$3,0*
0 Add four circle primitives for the rounded corners*
1,1,$1+$1,$2,$3*
1,1,$1+$1,$4,$5*
1,1,$1+$1,$6,$7*
1,1,$1+$1,$8,$9*
0 Add four rect primitives between the rounded corners*
20,1,$1+$1,$2,$3,$4,$5,0*
20,1,$1+$1,$4,$5,$6,$7,0*
20,1,$1+$1,$6,$7,$8,$9,0*
20,1,$1+$1,$8,$9,$2,$3,0*%
G04 Aperture macros list end*
%ADD10C,1.600000*%
%ADD11R,1.700000X1.700000*%
%ADD12R,2.500000X2.500000*%
%ADD13C,2.500000*%
%ADD14RoundRect,0.213608X-1.136392X-1.886392X1.136392X-1.886392X1.136392X1.886392X-1.136392X1.886392X0*%
%ADD15O,2.700000X4.200000*%
%ADD16RoundRect,0.250000X-0.550000X-0.550000X0.550000X-0.550000X0.550000X0.550000X-0.550000X0.550000X0*%
%ADD17C,3.200000*%
%ADD18C,1.700000*%
%ADD19RoundRect,0.250000X-1.000000X-0.600000X1.000000X-0.600000X1.000000X0.600000X-1.000000X0.600000X0*%
%ADD20O,2.500000X1.700000*%
%ADD21C,1.400000*%
%ADD22C,1.900000*%
%ADD23RoundRect,0.367648X1.632352X-0.882352X1.632352X0.882352X-1.632352X0.882352X-1.632352X-0.882352X0*%
%ADD24O,4.000000X2.500000*%
%ADD25RoundRect,0.250000X0.550000X0.550000X-0.550000X0.550000X-0.550000X-0.550000X0.550000X-0.550000X0*%
%ADD26RoundRect,0.250001X-1.499999X-1.149999X1.499999X-1.149999X1.499999X1.149999X-1.499999X1.149999X0*%
%ADD27C,3.500000*%
%ADD28RoundRect,0.575000X0.575000X-0.925000X0.575000X0.925000X-0.575000X0.925000X-0.575000X-0.925000X0*%
%ADD29O,2.000000X3.000000*%
%ADD30RoundRect,0.250000X0.500000X1.250000X-0.500000X1.250000X-0.500000X-1.250000X0.500000X-1.250000X0*%
%ADD31O,1.500000X3.000000*%
%ADD32RoundRect,0.281250X0.618750X0.618750X-0.618750X0.618750X-0.618750X-0.618750X0.618750X-0.618750X0*%
%ADD33C,1.800000*%
%ADD34C,2.200000*%
G04 APERTURE END LIST*
D10*
%TO.C,R8*%
X118848492Y-107615615D03*
X129008492Y-107615615D03*
%TD*%
D11*
%TO.C,J18*%
X129008492Y-102845615D03*
%TD*%
D12*
%TO.C,TR1*%
X73143192Y-62719315D03*
D13*
X73143192Y-75419315D03*
X83143192Y-75419315D03*
X83143192Y-62719315D03*
%TD*%
D14*
%TO.C,J21*%
X68073892Y-33320615D03*
D15*
X72033892Y-33320615D03*
%TD*%
D16*
%TO.C,U4*%
X143402592Y-82469615D03*
D10*
X143402592Y-85009615D03*
X143402592Y-87549615D03*
X143402592Y-90089615D03*
X151022592Y-90089615D03*
X151022592Y-87549615D03*
X151022592Y-85009615D03*
X151022592Y-82469615D03*
%TD*%
D17*
%TO.C,H4*%
X176123092Y-119430615D03*
%TD*%
D11*
%TO.C,J22*%
X112572800Y-28270200D03*
D18*
X110032800Y-28270200D03*
X107492800Y-28270200D03*
%TD*%
D16*
%TO.C,C19*%
X131088723Y-55977415D03*
D10*
X133588723Y-55977415D03*
%TD*%
D19*
%TO.C,U2*%
X95226492Y-47722415D03*
D20*
X95226492Y-45182415D03*
X95226492Y-42642415D03*
X95226492Y-40102415D03*
X95226492Y-37562415D03*
X95226492Y-35022415D03*
X95226492Y-32482415D03*
X95226492Y-29942415D03*
X79986492Y-29942415D03*
X79986492Y-32482415D03*
X79986492Y-35022415D03*
X79986492Y-37562415D03*
X79986492Y-40102415D03*
X79986492Y-42642415D03*
X79986492Y-45182415D03*
X79986492Y-47722415D03*
%TD*%
D18*
%TO.C,R16*%
X104599092Y-64562615D03*
X104599092Y-74722615D03*
%TD*%
D11*
%TO.C,J13*%
X169120092Y-102845615D03*
%TD*%
%TO.C,J5*%
X98503092Y-80564615D03*
%TD*%
D17*
%TO.C,H3*%
X36123092Y-119430615D03*
%TD*%
D10*
%TO.C,JP3*%
X92307092Y-121712615D03*
X94847092Y-121712615D03*
%TD*%
D12*
%TO.C,TR2*%
X73143192Y-82511365D03*
D13*
X73143192Y-95211365D03*
X83143192Y-95211365D03*
X83143192Y-82511365D03*
%TD*%
D10*
%TO.C,JP2*%
X92307092Y-101900615D03*
X94847092Y-101900615D03*
%TD*%
D21*
%TO.C,JP4*%
X158960092Y-102845615D03*
X161500092Y-102845615D03*
%TD*%
D22*
%TO.C,R11*%
X47315092Y-99386015D03*
X47315092Y-89226015D03*
%TD*%
D18*
%TO.C,R17*%
X92307092Y-85939115D03*
X92307092Y-96099115D03*
%TD*%
D10*
%TO.C,JP1*%
X92307092Y-80564615D03*
X94847092Y-80564615D03*
%TD*%
D11*
%TO.C,J15*%
X142253092Y-54783615D03*
%TD*%
D18*
%TO.C,J8*%
X149010992Y-115545615D03*
X149010992Y-118085615D03*
D11*
X149010992Y-120625615D03*
D18*
X149010992Y-113005615D03*
%TD*%
%TO.C,R22*%
X104599092Y-107234615D03*
X104599092Y-117394615D03*
%TD*%
D23*
%TO.C,U1*%
X45973092Y-72728115D03*
D24*
X51973092Y-72728115D03*
X39973092Y-39128115D03*
X57973092Y-39128115D03*
%TD*%
D22*
%TO.C,R13*%
X62315092Y-99259015D03*
X62315092Y-89099015D03*
%TD*%
D11*
%TO.C,J23*%
X111115000Y-54275615D03*
%TD*%
D25*
%TO.C,C15*%
X105869092Y-80310615D03*
D10*
X103369092Y-80310615D03*
%TD*%
D26*
%TO.C,J6*%
X47557619Y-107252915D03*
D27*
X52557619Y-107252915D03*
X57557619Y-107252915D03*
X62557619Y-107252915D03*
%TD*%
D18*
%TO.C,R21*%
X98503092Y-107234615D03*
X98503092Y-117394615D03*
%TD*%
D11*
%TO.C,J3*%
X118126092Y-69261615D03*
%TD*%
D22*
%TO.C,R12*%
X54819092Y-99386015D03*
X54819092Y-89226015D03*
%TD*%
D11*
%TO.C,J2*%
X163501692Y-59533415D03*
D18*
X160961692Y-59533415D03*
X158421692Y-59533415D03*
%TD*%
D11*
%TO.C,J20*%
X106630000Y-48270000D03*
D18*
X109170000Y-48270000D03*
X111710000Y-48270000D03*
X114250000Y-48270000D03*
%TD*%
D10*
%TO.C,R10*%
X127840092Y-60397015D03*
X127840092Y-70557015D03*
%TD*%
D11*
%TO.C,J12*%
X98503092Y-121712615D03*
%TD*%
D10*
%TO.C,R7*%
X138850992Y-107615615D03*
X149010992Y-107615615D03*
%TD*%
D16*
%TO.C,U3*%
X161500092Y-82469615D03*
D10*
X161500092Y-85009615D03*
X161500092Y-87549615D03*
X161500092Y-90089615D03*
X169120092Y-90089615D03*
X169120092Y-87549615D03*
X169120092Y-85009615D03*
X169120092Y-82469615D03*
%TD*%
D28*
%TO.C,F1*%
X38823092Y-110028615D03*
X38823092Y-104828615D03*
D29*
X38823092Y-94728615D03*
X38823092Y-89528615D03*
%TD*%
D11*
%TO.C,J11*%
X98503092Y-101900615D03*
%TD*%
%TO.C,J10*%
X123076092Y-69261615D03*
%TD*%
D10*
%TO.C,R6*%
X158960092Y-107615615D03*
X169120092Y-107615615D03*
%TD*%
D16*
%TO.C,C16*%
X162533923Y-54199415D03*
D10*
X165033923Y-54199415D03*
%TD*%
D30*
%TO.C,A1*%
X167607092Y-30796615D03*
D31*
X165067092Y-30796615D03*
X162527092Y-30796615D03*
X159987092Y-30796615D03*
X157447092Y-30796615D03*
X154907092Y-30796615D03*
X152367092Y-30796615D03*
X149827092Y-30796615D03*
X147287092Y-30796615D03*
X144747092Y-30796615D03*
X142207092Y-30796615D03*
X139667092Y-30796615D03*
X137127092Y-30796615D03*
X134587092Y-30796615D03*
X132047092Y-30796615D03*
X129507092Y-30796615D03*
X126967092Y-30796615D03*
X124427092Y-30796615D03*
X121887092Y-30796615D03*
X119347092Y-30796615D03*
X119347092Y-46036615D03*
X121887092Y-46036615D03*
X124427092Y-46036615D03*
X126967092Y-46036615D03*
X129507092Y-46036615D03*
X132047092Y-46036615D03*
X134587092Y-46036615D03*
X137127092Y-46036615D03*
X139667092Y-46036615D03*
X142207092Y-46036615D03*
X144747092Y-46036615D03*
X147287092Y-46036615D03*
X149827092Y-46036615D03*
X152367092Y-46036615D03*
X154907092Y-46036615D03*
X157447092Y-46036615D03*
X159987092Y-46036615D03*
X162527092Y-46036615D03*
X165067092Y-46036615D03*
X167607092Y-46036615D03*
%TD*%
D11*
%TO.C,J17*%
X137303092Y-69261615D03*
%TD*%
D32*
%TO.C,C1*%
X55918092Y-29739215D03*
D33*
X53418092Y-29739215D03*
%TD*%
D18*
%TO.C,R19*%
X104599092Y-96058615D03*
X104599092Y-85898615D03*
%TD*%
D11*
%TO.C,J1*%
X118126092Y-54275615D03*
%TD*%
D21*
%TO.C,JP6*%
X118848492Y-102845615D03*
X121388492Y-102845615D03*
%TD*%
D18*
%TO.C,J7*%
X169120092Y-115545615D03*
X169120092Y-118085615D03*
D11*
X169120092Y-120625615D03*
D18*
X169120092Y-113005615D03*
%TD*%
%TO.C,R20*%
X92307092Y-107275115D03*
X92307092Y-117435115D03*
%TD*%
%TO.C,J9*%
X129008492Y-115545615D03*
X129008492Y-118085615D03*
D11*
X129008492Y-120625615D03*
D18*
X129008492Y-113005615D03*
%TD*%
D16*
%TO.C,U5*%
X125305092Y-82469615D03*
D10*
X125305092Y-85009615D03*
X125305092Y-87549615D03*
X125305092Y-90089615D03*
X132925092Y-90089615D03*
X132925092Y-87549615D03*
X132925092Y-85009615D03*
X132925092Y-82469615D03*
%TD*%
D11*
%TO.C,J4*%
X109171092Y-73782815D03*
D18*
X109171092Y-71242815D03*
X109171092Y-68702815D03*
%TD*%
D10*
%TO.C,R9*%
X132183492Y-70557015D03*
X132183492Y-60397015D03*
%TD*%
D32*
%TO.C,C2*%
X48058692Y-29739215D03*
D33*
X45558692Y-29739215D03*
%TD*%
D34*
%TO.C,RV1*%
X38823092Y-81896615D03*
X46323092Y-83296615D03*
%TD*%
D16*
%TO.C,C18*%
X103202092Y-101900615D03*
D10*
X105702092Y-101900615D03*
%TD*%
D18*
%TO.C,R15*%
X98503092Y-64562615D03*
X98503092Y-74722615D03*
%TD*%
D11*
%TO.C,J14*%
X149010992Y-102845615D03*
%TD*%
D17*
%TO.C,H2*%
X176123092Y-29430615D03*
%TD*%
D18*
%TO.C,R18*%
X98503092Y-85898615D03*
X98503092Y-96058615D03*
%TD*%
%TO.C,R14*%
X92307092Y-64603115D03*
X92307092Y-74763115D03*
%TD*%
D17*
%TO.C,H1*%
X36123092Y-29430615D03*
%TD*%
D12*
%TO.C,TR3*%
X73143192Y-102303415D03*
D13*
X73143192Y-115003415D03*
X83143192Y-115003415D03*
X83143192Y-102303415D03*
%TD*%
D21*
%TO.C,JP5*%
X138850992Y-102845615D03*
X141390992Y-102845615D03*
%TD*%
D11*
%TO.C,J16*%
X142253092Y-69261615D03*
%TD*%
%TO.C,J19*%
X120753492Y-95957015D03*
D18*
X120753492Y-93417015D03*
X120753492Y-90877015D03*
%TD*%
M02*
