%TF.GenerationSoftware,KiCad,Pcbnew,10.0.2*%
%TF.CreationDate,2026-05-09T21:21:34-03:00*%
%TF.ProjectId,kicad-pps,6b696361-642d-4707-9073-2e6b69636164,rev?*%
%TF.SameCoordinates,Original*%
%TF.FileFunction,Legend,Bot*%
%TF.FilePolarity,Positive*%
%FSLAX46Y46*%
G04 Gerber Fmt 4.6, Leading zero omitted, Abs format (unit mm)*
G04 Created by KiCad (PCBNEW 10.0.2) date 2026-05-09 21:21:34*
%MOMM*%
%LPD*%
G01*
G04 APERTURE LIST*
%ADD10C,0.150000*%
%ADD11C,0.300000*%
%ADD12C,0.120000*%
G04 APERTURE END LIST*
D10*
X140539996Y-56324434D02*
X140539996Y-57133957D01*
X140539996Y-57133957D02*
X140492377Y-57229195D01*
X140492377Y-57229195D02*
X140444758Y-57276815D01*
X140444758Y-57276815D02*
X140349520Y-57324434D01*
X140349520Y-57324434D02*
X140159044Y-57324434D01*
X140159044Y-57324434D02*
X140063806Y-57276815D01*
X140063806Y-57276815D02*
X140016187Y-57229195D01*
X140016187Y-57229195D02*
X139968568Y-57133957D01*
X139968568Y-57133957D02*
X139968568Y-56324434D01*
X139063806Y-56324434D02*
X139254282Y-56324434D01*
X139254282Y-56324434D02*
X139349520Y-56372053D01*
X139349520Y-56372053D02*
X139397139Y-56419672D01*
X139397139Y-56419672D02*
X139492377Y-56562529D01*
X139492377Y-56562529D02*
X139539996Y-56753005D01*
X139539996Y-56753005D02*
X139539996Y-57133957D01*
X139539996Y-57133957D02*
X139492377Y-57229195D01*
X139492377Y-57229195D02*
X139444758Y-57276815D01*
X139444758Y-57276815D02*
X139349520Y-57324434D01*
X139349520Y-57324434D02*
X139159044Y-57324434D01*
X139159044Y-57324434D02*
X139063806Y-57276815D01*
X139063806Y-57276815D02*
X139016187Y-57229195D01*
X139016187Y-57229195D02*
X138968568Y-57133957D01*
X138968568Y-57133957D02*
X138968568Y-56895862D01*
X138968568Y-56895862D02*
X139016187Y-56800624D01*
X139016187Y-56800624D02*
X139063806Y-56753005D01*
X139063806Y-56753005D02*
X139159044Y-56705386D01*
X139159044Y-56705386D02*
X139349520Y-56705386D01*
X139349520Y-56705386D02*
X139444758Y-56753005D01*
X139444758Y-56753005D02*
X139492377Y-56800624D01*
X139492377Y-56800624D02*
X139539996Y-56895862D01*
D11*
X50941427Y-64249757D02*
X51084285Y-64178328D01*
X51084285Y-64178328D02*
X51298570Y-64178328D01*
X51298570Y-64178328D02*
X51512856Y-64249757D01*
X51512856Y-64249757D02*
X51655713Y-64392614D01*
X51655713Y-64392614D02*
X51727142Y-64535471D01*
X51727142Y-64535471D02*
X51798570Y-64821185D01*
X51798570Y-64821185D02*
X51798570Y-65035471D01*
X51798570Y-65035471D02*
X51727142Y-65321185D01*
X51727142Y-65321185D02*
X51655713Y-65464042D01*
X51655713Y-65464042D02*
X51512856Y-65606900D01*
X51512856Y-65606900D02*
X51298570Y-65678328D01*
X51298570Y-65678328D02*
X51155713Y-65678328D01*
X51155713Y-65678328D02*
X50941427Y-65606900D01*
X50941427Y-65606900D02*
X50869999Y-65535471D01*
X50869999Y-65535471D02*
X50869999Y-65035471D01*
X50869999Y-65035471D02*
X51155713Y-65035471D01*
X50012856Y-64178328D02*
X50012856Y-64535471D01*
X50369999Y-64392614D02*
X50012856Y-64535471D01*
X50012856Y-64535471D02*
X49655713Y-64392614D01*
X50227142Y-64821185D02*
X50012856Y-64535471D01*
X50012856Y-64535471D02*
X49798570Y-64821185D01*
X48869999Y-64178328D02*
X48869999Y-64535471D01*
X49227142Y-64392614D02*
X48869999Y-64535471D01*
X48869999Y-64535471D02*
X48512856Y-64392614D01*
X49084285Y-64821185D02*
X48869999Y-64535471D01*
X48869999Y-64535471D02*
X48655713Y-64821185D01*
X47727142Y-64178328D02*
X47727142Y-64535471D01*
X48084285Y-64392614D02*
X47727142Y-64535471D01*
X47727142Y-64535471D02*
X47369999Y-64392614D01*
X47941428Y-64821185D02*
X47727142Y-64535471D01*
X47727142Y-64535471D02*
X47512856Y-64821185D01*
D10*
X121362996Y-66884434D02*
X121362996Y-67693957D01*
X121362996Y-67693957D02*
X121315377Y-67789195D01*
X121315377Y-67789195D02*
X121267758Y-67836815D01*
X121267758Y-67836815D02*
X121172520Y-67884434D01*
X121172520Y-67884434D02*
X120982044Y-67884434D01*
X120982044Y-67884434D02*
X120886806Y-67836815D01*
X120886806Y-67836815D02*
X120839187Y-67789195D01*
X120839187Y-67789195D02*
X120791568Y-67693957D01*
X120791568Y-67693957D02*
X120791568Y-66884434D01*
X120410615Y-66884434D02*
X119743949Y-66884434D01*
X119743949Y-66884434D02*
X120172520Y-67884434D01*
%TO.C,U6*%
D12*
X137718092Y-57714615D02*
X137718092Y-57779615D01*
X137718092Y-66519615D02*
X137718092Y-66584615D01*
X137718092Y-66584615D02*
X141838092Y-66584615D01*
X141838092Y-57714615D02*
X137718092Y-57714615D01*
X141838092Y-57779615D02*
X141838092Y-57714615D01*
X141838092Y-66584615D02*
X141838092Y-66519615D01*
X142378092Y-57779615D02*
X142618092Y-57449615D01*
X142138092Y-57449615D01*
X142378092Y-57779615D01*
G36*
X142378092Y-57779615D02*
G01*
X142138092Y-57449615D01*
X142618092Y-57449615D01*
X142378092Y-57779615D01*
G37*
%TO.C,U7*%
X118541092Y-57714615D02*
X118541092Y-57779615D01*
X118541092Y-66519615D02*
X118541092Y-66584615D01*
X118541092Y-66584615D02*
X122661092Y-66584615D01*
X122661092Y-57714615D02*
X118541092Y-57714615D01*
X122661092Y-57779615D02*
X122661092Y-57714615D01*
X122661092Y-66584615D02*
X122661092Y-66519615D01*
X118001092Y-66519615D02*
X117761092Y-66849615D01*
X118241092Y-66849615D01*
X118001092Y-66519615D01*
G36*
X118241092Y-66849615D02*
G01*
X117761092Y-66849615D01*
X118001092Y-66519615D01*
X118241092Y-66849615D01*
G37*
%TD*%
M02*
